<?xml version="1.0" encoding="UTF-8"?>
<svg width="106px" height="32px" viewBox="0 0 106 32" version="1.1" xmlns="http://www.w3.org/2000/svg" xmlns:xlink="http://www.w3.org/1999/xlink">
    <defs>
        <polygon id="path-1" points="0 0 105.540547 0 105.540547 31.525 0 31.525"></polygon>
    </defs>
    <g id="Symbols" stroke="none" stroke-width="1" fill="none" fill-rule="evenodd">
        <g id="component" transform="translate(-1070.000000, -508.000000)">
            <g id="app-store" transform="translate(1070.000000, 508.000000)">
                <path d="M101.571504,30.6724612 L3.97283191,30.6724612 C1.99494129,30.6724612 0.39216809,29.0696875 0.39216809,27.0917969 L0.39216809,3.9709375 C0.39216809,1.99304688 1.99494129,0.39027368 3.97283191,0.39027368 L101.571504,0.39027368 C103.549394,0.39027368 105.152168,1.99304688 105.152168,3.9709375 L105.152168,27.0917969 C105.152168,29.0696875 103.549394,30.6724612 101.571504,30.6724612" id="Path" fill-rule="nonzero"></path>
                <g id="Clipped">
                    <mask id="mask-2" fill="white">
                        <use xlink:href="#path-1"></use>
                    </mask>
                    <g id="Path"></g>
                    <path d="M3.9709375,0.782441285 C2.2128125,0.782441285 0.782441285,2.2128125 0.782441285,3.9709375 L0.782441285,27.0917969 C0.782441285,28.8499219 2.2128125,30.2802931 3.9709375,30.2802931 L101.571504,30.2802931 C103.329629,30.2802931 104.76,28.8499219 104.76,27.0917969 L104.76,3.9709375 C104.76,2.2128125 103.329629,0.782441285 101.571504,0.782441285 L3.9709375,0.782441285 Z M101.571504,31.0646288 L3.9709375,31.0646288 C1.78085937,31.0646288 0,29.281875 0,27.0917969 L0,3.9709375 C0,1.78085937 1.78085937,-0.00189453125 3.9709375,-0.00189453125 L101.571504,-0.00189453125 C103.761582,-0.00189453125 105.542441,1.78085937 105.542441,3.9709375 L105.542441,27.0917969 C105.542441,29.281875 103.761582,31.0646288 101.571504,31.0646288" id="Shape" fill="#FFFFFF" fill-rule="nonzero" mask="url(#mask-2)"></path>
                </g>
                <path d="M36.5985549,8.12943372 L36.1969143,6.87146497 C36.0983987,6.56076184 36.0150393,6.2140625 35.9392581,5.91851563 L35.9241018,5.91851563 C35.850215,6.2140625 35.7725393,6.56833997 35.6834962,6.87146497 L35.2894337,8.12943372 L36.5985549,8.12943372 Z M35.1378712,8.83230493 L34.69834,10.2797268 L33.7359181,10.2797268 L35.3727931,5.17585938 L36.5606643,5.17585938 L38.2183788,10.2797268 L37.2199612,10.2797268 L36.7576956,8.83230493" id="Shape" fill="#FFFFFF" fill-rule="nonzero"></path>
                <path d="M39.6108594,6.59296875 L40.2095313,8.46097681 C40.315625,8.78683618 40.3895118,9.08238306 40.457715,9.38550806 L40.4804493,9.38550806 C40.5486525,9.08238306 40.6320118,8.79441431 40.7305275,8.46097681 L41.3216212,6.59296875 L42.2973049,6.59296875 L40.8896681,10.2797268 L39.9746094,10.2797268 L38.6029688,6.59296875" id="Path" fill="#FFFFFF" fill-rule="nonzero"></path>
                <path d="M45.1068944,8.47613305 C44.4475975,8.46855493 43.8186132,8.60496118 43.8186132,9.16574243 C43.8186132,9.52949243 44.053535,9.69621118 44.3490819,9.69621118 C44.7260938,9.69621118 44.9932225,9.45371118 45.0822656,9.1884768 C45.1068944,9.12027368 45.1068944,9.05207055 45.1068944,8.98386743 L45.1068944,8.47613305 Z M46.014375,9.39308618 C46.014375,9.72652368 46.0295313,10.0523831 46.075,10.2778319 L45.2338281,10.2778319 L45.1675194,9.87050805 L45.1428906,9.87050805 C44.9250194,10.1565819 44.538535,10.3611913 44.053535,10.3611913 C43.3108788,10.3611913 42.8959768,9.8250393 42.8959768,9.26425805 C42.8959768,8.3397268 43.7200975,7.86419934 45.0822656,7.87177746 L45.0822656,7.81115246 C45.0822656,7.56865246 44.9856444,7.16701184 44.3339257,7.16701184 C43.9701757,7.16701184 43.5912694,7.28068371 43.3411913,7.43982434 L43.1593163,6.83357434 C43.4321288,6.66685559 43.9095507,6.50960937 44.4930663,6.50960937 C45.6733594,6.50960937 46.014375,7.25794934 46.014375,8.06880871" id="Shape" fill="#FFFFFF" fill-rule="nonzero"></path>
                <path d="M47.3310743,6.59296875 L48.2612893,6.59296875 L48.2612893,10.2797268 L47.3310743,10.2797268 L47.3310743,6.59296875 Z M47.7914456,6.0625 C47.4826368,6.0625 47.2780275,5.83515625 47.2780275,5.56234375 C47.2780275,5.274375 47.4883206,5.05460938 47.8009181,5.05460938 C48.1173049,5.05460938 48.3143362,5.274375 48.3219143,5.56234375 C48.3219143,5.83515625 48.1173049,6.0625 47.8009181,6.0625" id="Shape" fill="#FFFFFF" fill-rule="nonzero"></path>
                <polygon id="Path" fill="#FFFFFF" fill-rule="nonzero" points="49.6007225 10.2797268 50.5328319 10.2797268 50.5328319 4.89546875 49.6007225 4.89546875"></polygon>
                <path d="M53.8331056,8.47613305 C53.1738087,8.46855493 52.5448243,8.60496118 52.5448243,9.16574243 C52.5448243,9.52949243 52.7797462,9.69621118 53.0752931,9.69621118 C53.4541993,9.69621118 53.7194337,9.45371118 53.8103712,9.1884768 C53.8331056,9.12027368 53.8331056,9.05207055 53.8331056,8.98386743 L53.8331056,8.47613305 Z M54.7405862,9.39308618 C54.7405862,9.72652368 54.7557424,10.0523831 54.8012112,10.2778319 L53.9619337,10.2778319 L53.8937306,9.87050805 L53.8709962,9.87050805 C53.6512306,10.1565819 53.2647462,10.3611913 52.7797462,10.3611913 C52.0389844,10.3611913 51.6221875,9.8250393 51.6221875,9.26425805 C51.6221875,8.3397268 52.4482031,7.86419934 53.8103712,7.87177746 L53.8103712,7.81115246 C53.8103712,7.56865246 53.7118556,7.16701184 53.0601368,7.16701184 C52.6963868,7.16701184 52.3174806,7.28068371 52.0692969,7.43982434 L51.8874219,6.83357434 C52.1602344,6.66685559 52.6357618,6.50960937 53.2192775,6.50960937 C54.3995706,6.50960937 54.7405862,7.25794934 54.7405862,8.06880871" id="Shape" fill="#FFFFFF" fill-rule="nonzero"></path>
                <path d="M56.9893944,8.75652368 C56.9893944,8.83230493 56.9969725,8.90808618 57.0121288,8.9762893 C57.1106444,9.35519555 57.4365038,9.62800805 57.83625,9.62800805 C58.4197656,9.62800805 58.7759375,9.16574243 58.7759375,8.41740246 C58.7759375,7.76568371 58.4652344,7.23521496 57.8438281,7.23521496 C57.4649219,7.23521496 57.1182225,7.50802746 57.0197069,7.91724621 C57.0045507,7.98544934 56.9893944,8.06880871 56.9893944,8.15974621 L56.9893944,8.75652368 Z M56.057285,4.89546875 L56.9893944,4.89546875 L56.9893944,7.09880871 L57.0045507,7.09880871 C57.2318944,6.74263684 57.6316406,6.50960937 58.1848438,6.50960937 C59.0866406,6.50960937 59.7288868,7.25794934 59.7213087,8.37951184 C59.7213087,9.7037893 58.8820313,10.3630862 58.0484375,10.3630862 C57.5710156,10.3630862 57.148535,10.1812112 56.8833007,9.72652368 L56.8681444,9.72652368 L56.8226757,10.2797268 L56.0269725,10.2797268 C56.0421288,10.0296487 56.057285,9.62042993 56.057285,9.2491018" id="Shape" fill="#FFFFFF" fill-rule="nonzero"></path>
                <polygon id="Path" fill="#FFFFFF" fill-rule="nonzero" points="60.8182424 10.2797268 61.7484569 10.2797268 61.7484569 4.89546875 60.8182424 4.89546875"></polygon>
                <path d="M65.37459,8.04607434 C65.3821681,7.70505871 65.2306056,7.14427746 64.6110938,7.14427746 C64.0351563,7.14427746 63.7926563,7.66716809 63.7547656,8.04607434 L65.37459,8.04607434 Z M63.7547656,8.69589868 C63.7775,9.36277368 64.3003906,9.65074243 64.8914844,9.65074243 C65.3215431,9.65074243 65.6246681,9.5825393 65.9126368,9.48402368 L66.0490431,10.1186913 C65.7307618,10.2569924 65.2912306,10.3536132 64.7626563,10.3536132 C63.5653125,10.3536132 62.8605469,9.62042993 62.8605469,8.49318371 C62.8605469,7.47013684 63.4819531,6.50960937 64.6641406,6.50960937 C65.85959,6.50960937 66.2536525,7.49287121 66.2536525,8.30373059 C66.2536525,8.47802746 66.2384962,8.61443371 66.22334,8.69589868" id="Shape" fill="#FFFFFF" fill-rule="nonzero"></path>
                <path d="M70.8782031,9.68863306 C71.4067775,9.68863306 71.7781056,9.17332056 71.7781056,8.42498059 C71.7781056,7.84904309 71.5204493,7.18216809 70.8857812,7.18216809 C70.2264844,7.18216809 69.96125,7.82630872 69.96125,8.44013684 C69.96125,9.15058618 70.3174219,9.68863306 70.8687306,9.68863306 L70.8782031,9.68863306 Z M70.8478906,10.3630862 C69.8096875,10.3630862 69.0007225,9.65074243 69.0007225,8.46287122 C69.0007225,7.25037122 69.7945312,6.50960938 70.9085156,6.50960938 C72.0054493,6.50960938 72.7405275,7.28068372 72.7405275,8.40224622 C72.7405275,9.75683618 71.7856837,10.3630862 70.8554688,10.3630862" id="Shape" fill="#FFFFFF" fill-rule="nonzero"></path>
                <path d="M73.8355663,7.68990246 C73.8355663,7.26552746 73.8223049,6.90935559 73.8071487,6.59107434 L74.6161132,6.59107434 L74.6615819,7.14427746 L74.6843163,7.14427746 C74.851035,6.85630871 75.2526757,6.50960937 75.8665038,6.50960937 C76.50875,6.50960937 77.175625,6.92451184 77.175625,8.09154309 L77.175625,10.2778319 L76.2435156,10.2778319 L76.2435156,8.19763684 C76.2435156,7.66716809 76.0464844,7.26552746 75.5406444,7.26552746 C75.1693163,7.26552746 74.91166,7.53076184 74.8131444,7.81115246 C74.7828319,7.88693371 74.7676757,8.00060559 74.7676757,8.10669934 L74.7676757,10.2778319 L73.8355663,10.2778319" id="Path" fill="#FFFFFF" fill-rule="nonzero"></path>
                <path d="M81.4667382,5.64570312 L81.4667382,6.59107434 L82.3514844,6.59107434 L82.3514844,7.28826184 L81.4667382,7.28826184 L81.4667382,8.90808618 C81.4667382,9.36277368 81.5879882,9.59011743 81.9422656,9.59011743 C82.1089844,9.59011743 82.1999219,9.5825393 82.3060156,9.5522268 L82.3211719,10.2550975 C82.1847656,10.3100393 81.9346875,10.3536132 81.6467187,10.3536132 C81.3000194,10.3536132 81.0196288,10.2399413 80.8453319,10.0523831 C80.6407225,9.84019555 80.549785,9.49917993 80.549785,9.01417993 L80.549785,7.28826184 L80.0268944,7.28826184 L80.0268944,6.59107434 L80.549785,6.59107434 L80.549785,5.90335937" id="Path" fill="#FFFFFF" fill-rule="nonzero"></path>
                <path d="M83.3877931,4.89546875 L84.3199025,4.89546875 L84.3199025,7.09123059 L84.3350587,7.09123059 C84.4487306,6.91693372 84.6078712,6.77294934 84.7973243,6.67443372 C84.9867775,6.57023438 85.2046487,6.50960938 85.4395706,6.50960938 C86.0685549,6.50960938 86.7259569,6.92451184 86.7259569,8.10669934 L86.7259569,10.2797268 L85.7957424,10.2797268 L85.7957424,8.20521497 C85.7957424,7.67474622 85.5987112,7.26552747 85.0833987,7.26552747 C84.7215431,7.26552747 84.4638868,7.50802747 84.3577931,7.78841809 C84.3274806,7.87177747 84.3199025,7.97029309 84.3199025,8.06880872 L84.3199025,10.2797268 L83.3877931,10.2797268" id="Path" fill="#FFFFFF" fill-rule="nonzero"></path>
                <path d="M90.3293556,8.04607434 C90.3369337,7.70505871 90.1853712,7.14427746 89.563965,7.14427746 C88.9880275,7.14427746 88.7474219,7.66716809 88.7095313,8.04607434 L90.3293556,8.04607434 Z M88.7095313,8.69589868 C88.7322656,9.36277368 89.2532618,9.65074243 89.8443556,9.65074243 C90.2763087,9.65074243 90.5794337,9.5825393 90.8655081,9.48402368 L91.0038087,10.1186913 C90.6855275,10.2569924 90.2459962,10.3536132 89.7155275,10.3536132 C88.5200781,10.3536132 87.8153125,9.62042993 87.8153125,8.49318371 C87.8153125,7.47013684 88.4367188,6.50960937 89.6170118,6.50960937 C90.8124612,6.50960937 91.2065237,7.49287121 91.2065237,8.30373059 C91.2065237,8.47802746 91.1913674,8.61443371 91.1762112,8.69589868" id="Shape" fill="#FFFFFF" fill-rule="nonzero"></path>
                <path d="M23.5547069,15.2282424 C23.5300781,12.7028319 25.6216406,11.4732813 25.7182618,11.4164456 C24.5341799,9.68863306 22.6983788,9.45371118 22.0523438,9.43476563 C20.51209,9.27373059 19.0173049,10.3592969 18.2329688,10.3592969 C17.4315819,10.3592969 16.2209768,9.45181629 14.9194337,9.47833997 C13.2408788,9.50486316 11.6722069,10.4767581 10.81209,11.98291 C9.03880872,15.0577344 10.3611913,19.5742969 12.0624806,22.0599219 C12.9150194,23.2762112 13.9077538,24.6364844 15.2092969,24.5872268 C16.4824219,24.5341799 16.9579493,23.7763674 18.4944143,23.7763674 C20.0176174,23.7763674 20.4647268,24.5872268 21.7927931,24.5569143 C23.15875,24.5341799 24.0188674,23.3349413 24.8391993,22.1053906 C25.8243556,20.7110156 26.2184181,19.3374806 26.2335743,19.2673831 C26.2013674,19.2560156 23.5812306,18.2557031 23.5547069,15.2282424" id="Path" fill="#FFFFFF" fill-rule="nonzero"></path>
                <path d="M21.0463475,7.80167993 C21.7302737,6.94535181 22.2020118,5.77832056 22.0693944,4.59613306 C21.0785549,4.64160181 19.8395313,5.28195313 19.1252931,6.11933618 C18.4944143,6.85820313 17.9279493,8.06880872 18.0757225,9.20552747 C19.1897069,9.28888684 20.3321094,8.64474622 21.0463475,7.80167993" id="Path" fill="#FFFFFF" fill-rule="nonzero"></path>
                <path d="M38.9193556,20.0498243 L38.0402931,17.3349612 C37.9474612,17.0583594 37.7731643,16.4047462 37.5155081,15.37791 L37.4851956,15.37791 C37.3828906,15.8193362 37.2161719,16.4729493 36.9907225,17.3349612 L36.1268163,20.0498243 L38.9193556,20.0498243 Z M41.9581837,24.3864063 L40.1830081,24.3864063 L39.2111132,21.3324219 L35.8350587,21.3324219 L34.9086331,24.3864063 L33.1808206,24.3864063 L36.5303518,13.9892187 L38.5953906,13.9892187" id="Shape" fill="#FFFFFF" fill-rule="nonzero"></path>
                <path d="M48.8694337,20.6068163 C48.8694337,19.8755275 48.7046094,19.2749612 48.3749612,18.8013281 C48.015,18.30875 47.5318944,18.0605663 46.9256444,18.0605663 C46.5145313,18.0605663 46.1394143,18.1988674 45.8078712,18.469785 C45.4744337,18.7444924 45.2546681,19.1006643 45.1504688,19.5439844 C45.0993163,19.7485937 45.0746875,19.9172069 45.0746875,20.0498243 L45.0746875,21.300215 C45.0746875,21.84584 45.2414063,22.3062112 45.5748438,22.6813281 C45.9101757,23.05834 46.3440237,23.2440038 46.8782813,23.2440038 C47.5072656,23.2440038 47.9960549,23.0033987 48.3427538,22.5183987 C48.6951368,22.0352931 48.8694337,21.3987306 48.8694337,20.6068163 M50.5669337,20.5442969 C50.5669337,21.8193163 50.2221288,22.8291018 49.5325194,23.5679687 C48.9149025,24.2272656 48.1476174,24.5550194 47.2344531,24.5550194 C46.2455081,24.5550194 45.5369531,24.1988475 45.105,23.4902931 L45.0746875,23.4902931 L45.0746875,27.4403906 L43.4075,27.4403906 L43.4075,19.3564257 C43.4075,18.5550393 43.3885549,17.7328125 43.346875,16.8878518 L44.8113475,16.8878518 L44.9041799,18.0776174 L44.9363868,18.0776174 C45.4914844,17.1815038 46.3345507,16.7343944 47.4655862,16.7343944 C48.3484375,16.7343944 49.0891993,17.0848831 49.6783987,17.783965 C50.2694924,18.4849413 50.5669337,19.4037893 50.5669337,20.5442969" id="Shape" fill="#FFFFFF" fill-rule="nonzero"></path>
                <path d="M57.4914456,20.6068163 C57.4914456,19.8755275 57.3266212,19.2749612 56.9969725,18.8013281 C56.6370118,18.30875 56.1539062,18.0605663 55.5476562,18.0605663 C55.1365431,18.0605663 54.7633206,18.1988674 54.4298831,18.469785 C54.0945507,18.7444924 53.8785743,19.1006643 53.7762694,19.5439844 C53.7232225,19.7485937 53.6985937,19.9172069 53.6985937,20.0498243 L53.6985937,21.300215 C53.6985937,21.84584 53.8634181,22.3062112 54.1968556,22.6813281 C54.5321875,23.05834 54.966035,23.2440038 55.5021875,23.2440038 C56.1292775,23.2440038 56.6180663,23.0033987 56.96666,22.5183987 C57.3152538,22.0352931 57.4914456,21.3987306 57.4914456,20.6068163 M59.1870507,20.5442969 C59.1870507,21.8193163 58.8441406,22.8291018 58.1545312,23.5679687 C57.5369143,24.2272656 56.7715237,24.5550194 55.856465,24.5550194 C54.8694143,24.5550194 54.1608594,24.1988475 53.7270118,23.4902931 L53.6985937,23.4902931 L53.6985937,27.4403906 L52.0314062,27.4403906 L52.0314062,19.3564257 C52.0314062,18.5550393 52.0105663,17.7328125 51.9707812,16.8878518 L53.4352538,16.8878518 L53.5280862,18.0776174 L53.5602931,18.0776174 C54.1134962,17.1815038 54.9565625,16.7343944 56.0875975,16.7343944 C56.9723437,16.7343944 57.7093163,17.0848831 58.3023049,17.783965 C58.8933987,18.4849413 59.1870507,19.4037893 59.1870507,20.5442969" id="Shape" fill="#FFFFFF" fill-rule="nonzero"></path>
                <path d="M68.830215,21.4707225 C68.830215,22.3535743 68.5233007,23.0734962 67.9056837,23.6304882 C67.2274413,24.2367382 66.2858594,24.5398632 65.0752538,24.5398632 C63.9555862,24.5398632 63.0575781,24.3238868 62.3774413,23.8919337 L62.7639257,22.5051368 C63.4971094,22.9465625 64.2984962,23.1663281 65.1737694,23.1663281 C65.8008594,23.1663281 66.2896487,23.0261331 66.6401368,22.7438475 C66.9887306,22.4596681 67.1630275,22.0807618 67.1630275,21.6071288 C67.1630275,21.1865431 67.0209375,20.8284768 66.7329687,20.5405081 C66.445,20.2525393 65.9656837,19.98541 65.2969143,19.7372268 C63.4762694,19.05709 62.5668944,18.0624612 62.5668944,16.7552344 C62.5668944,15.9008007 62.8851757,15.1998243 63.5236331,14.6541993 C64.1601956,14.1085743 65.0089456,13.8338674 66.0679882,13.8338674 C67.0152538,13.8338674 67.8014844,14.0005862 68.4285743,14.32834 L68.0117775,15.6867188 C67.4263674,15.3684375 66.7632813,15.2074025 66.0225194,15.2074025 C65.435215,15.2074025 64.9786331,15.3513868 64.6508788,15.6393556 C64.3742775,15.8970118 64.2340819,16.2115038 64.2340819,16.5809375 C64.2340819,16.9920507 64.3913281,17.3311719 64.7115038,17.5983007 C64.9881056,17.84459 65.4920507,18.1117188 66.22334,18.4015819 C67.1175587,18.7615431 67.7749612,19.1821288 68.1974413,19.6652344 C68.6180275,20.14834 68.830215,20.7508007 68.830215,21.4707225" id="Path" fill="#FFFFFF" fill-rule="nonzero"></path>
                <path d="M74.3357225,18.1382424 L72.4999219,18.1382424 L72.4999219,21.7776368 C72.4999219,22.7040625 72.8238868,23.1663281 73.4737112,23.1663281 C73.7692581,23.1663281 74.0174413,23.1416993 74.2125781,23.0905469 L74.2580469,24.3541993 C73.9321875,24.4792382 73.49834,24.5398632 72.9640819,24.5398632 C72.3066799,24.5398632 71.7913674,24.3390431 71.4200393,23.9392969 C71.0506056,23.5376562 70.8649413,22.8632031 70.8649413,21.9178319 L70.8649413,18.1382424 L69.7699025,18.1382424 L69.7699025,16.8878518 L70.8649413,16.8878518 L70.8649413,15.5162112 L72.4999219,15.0217382 L72.4999219,16.8878518 L74.3357225,16.8878518" id="Path" fill="#FFFFFF" fill-rule="nonzero"></path>
                <path d="M80.8926956,20.6295507 C80.8926956,19.9380469 80.7430275,19.3469531 80.4436913,18.8505862 C80.0969924,18.2519143 79.5968362,17.9525781 78.9489063,17.9525781 C78.2801368,17.9525781 77.7705081,18.2519143 77.4219143,18.8505862 C77.1225781,19.3469531 76.9766993,19.9494143 76.9766993,20.6617581 C76.9766993,21.3532618 77.1225781,21.9443556 77.4219143,22.4388281 C77.781875,23.0375 78.2858206,23.3368362 78.9356444,23.3368362 C79.5703125,23.3368362 80.0704688,23.0337112 80.4304299,22.4236719 C80.7392382,21.9197268 80.8926956,21.3210549 80.8926956,20.6295507 M82.6205081,20.5765038 C82.6205081,21.7283788 82.2927538,22.67375 81.6334569,23.4145118 C80.9438475,24.1761132 80.0287893,24.5550194 78.8882813,24.5550194 C77.7856643,24.5550194 76.9103906,24.189375 76.2567775,23.4599806 C75.6050587,22.7305862 75.2791993,21.8098437 75.2791993,20.6996487 C75.2791993,19.5364062 75.6145313,18.5853518 76.2889844,17.8464844 C76.9615431,17.1038281 77.8690237,16.7343944 79.0095313,16.7343944 C80.1102538,16.7343944 80.9968944,17.1000393 81.6637694,17.8294337 C82.3022268,18.5417775 82.6205081,19.4549413 82.6205081,20.5765038" id="Shape" fill="#FFFFFF" fill-rule="nonzero"></path>
                <path d="M88.0350781,18.3542187 C87.8702538,18.3239062 87.6959569,18.30875 87.5102931,18.30875 C86.9248831,18.30875 86.4701956,18.53041 86.1519143,18.9718362 C85.8753125,19.3640038 85.7370118,19.8565819 85.7370118,20.451465 L85.7370118,24.3864062 L84.0717188,24.3864062 L84.0849806,19.2503319 C84.0849806,18.3845312 84.0641406,17.5983007 84.0243556,16.8878518 L85.4755663,16.8878518 L85.5361913,18.3239062 L85.5797656,18.3239062 C85.7559569,17.8313281 86.0344531,17.4334768 86.4133594,17.136035 C86.7846875,16.8689062 87.1863281,16.7343944 87.6182813,16.7343944 C87.7717382,16.7343944 87.9119337,16.7457618 88.0350781,16.7647069" id="Path" fill="#FFFFFF" fill-rule="nonzero"></path>
                <path d="M93.8948632,19.8508987 C93.9062306,19.3583206 93.7982424,18.9301563 93.5727931,18.5701956 C93.2848243,18.1079299 92.8396094,17.8749025 92.2447268,17.8749025 C91.7009962,17.8749025 91.2576757,18.1022462 90.9185549,18.5550393 C90.6419531,18.915 90.4752344,19.3469531 90.4278712,19.8508987 L93.8948632,19.8508987 Z M95.4824806,20.2828518 C95.4824806,20.5821875 95.463535,20.8322656 95.42375,21.0387694 L90.4278712,21.0387694 C90.4449219,21.7795313 90.6874219,22.3459962 91.1515819,22.7362694 C91.5721681,23.0867581 92.1177931,23.25916 92.7865625,23.25916 C93.5254299,23.25916 94.1998831,23.1416993 94.8080275,22.9048831 L95.0694725,24.0624413 C94.3590237,24.3693556 93.5216406,24.5266018 92.553535,24.5266018 C91.3921875,24.5266018 90.4790237,24.1836913 89.8159375,23.4978712 C89.1547462,22.81584 88.8213087,21.8969924 88.8213087,20.7451174 C88.8213087,19.6140819 89.1282225,18.6725 89.7477344,17.9222656 C90.3937694,17.1189844 91.2690431,16.7192382 92.3678712,16.7192382 C93.4477538,16.7192382 94.2680862,17.1189844 94.8231837,17.9222656 C95.2646094,18.5588281 95.4824806,19.3469531 95.4824806,20.2828518" id="Shape" fill="#FFFFFF" fill-rule="nonzero"></path>
            </g>
        </g>
    </g>
</svg>
