<svg xmlns="http://www.w3.org/2000/svg" width="86.991" height="18.791" viewBox="0 0 86.991 18.791">
  <g id="logo" transform="translate(-18.2 -50.8)">
    <g id="Group_1" data-name="Group 1" transform="translate(18.2 50.8)">
      <path id="Path_1" data-name="Path 1" d="M22,73.236l.142,1.534a4.415,4.415,0,0,1,1.582-1.3A4.724,4.724,0,0,1,25.872,73a4.2,4.2,0,0,1,2.007.472A2.9,2.9,0,0,1,29.2,74.983a4.392,4.392,0,0,1,1.582-1.44,4.593,4.593,0,0,1,2.266-.519,5.122,5.122,0,0,1,1.629.26,3.11,3.11,0,0,1,1.3.85,4.452,4.452,0,0,1,.85,1.558,7.7,7.7,0,0,1,.307,2.384v8.215H33.049V78.075a3.8,3.8,0,0,0-.118-.991,1.272,1.272,0,0,0-.307-.59,1.051,1.051,0,0,0-.5-.283,2.838,2.838,0,0,0-.661-.071,1.875,1.875,0,0,0-1.062.283,2.115,2.115,0,0,0-.732.779c0,.071.024.118.024.189v8.9H25.613V78.1a3.8,3.8,0,0,0-.094-.991,1.5,1.5,0,0,0-.307-.614,1.051,1.051,0,0,0-.5-.283,2.787,2.787,0,0,0-.661-.094,1.9,1.9,0,0,0-1.039.283,2.115,2.115,0,0,0-.732.779v9.089H18.2V73.236Z" transform="translate(-18.2 -67.759)" fill="#fff"/>
      <path id="Path_2" data-name="Path 2" d="M115.661,85.638a4.417,4.417,0,0,1-1.487,1.228,4.25,4.25,0,0,1-2.007.425,5.355,5.355,0,0,1-1.771-.283,3.541,3.541,0,0,1-1.369-.85,4.147,4.147,0,0,1-.9-1.511,6.763,6.763,0,0,1-.33-2.219V74h4.06v8.475a1.659,1.659,0,0,0,.425,1.275,1.722,1.722,0,0,0,1.2.4,2.631,2.631,0,0,0,1.228-.26,2.04,2.04,0,0,0,.755-.732V74h4.084V87.055h-3.8Z" transform="translate(-86.648 -68.523)" fill="#fff"/>
      <path id="Path_3" data-name="Path 3" d="M171.277,73.236l.142,1.534a4.415,4.415,0,0,1,1.582-1.3A4.724,4.724,0,0,1,175.149,73a4.2,4.2,0,0,1,2.007.472,2.9,2.9,0,0,1,1.322,1.511,4.392,4.392,0,0,1,1.582-1.44,4.593,4.593,0,0,1,2.266-.519,5.122,5.122,0,0,1,1.629.26,3.11,3.11,0,0,1,1.3.85,4.452,4.452,0,0,1,.85,1.558,7.7,7.7,0,0,1,.307,2.384v8.215h-4.084V78.075a3.8,3.8,0,0,0-.118-.991,1.271,1.271,0,0,0-.307-.59,1.051,1.051,0,0,0-.5-.283,2.838,2.838,0,0,0-.661-.071,1.875,1.875,0,0,0-1.062.283,2.115,2.115,0,0,0-.732.779c0,.071.024.118.024.189v8.9h-4.084V78.1a3.8,3.8,0,0,0-.094-.991,1.5,1.5,0,0,0-.307-.614,1.051,1.051,0,0,0-.5-.283,2.838,2.838,0,0,0-.661-.071,1.9,1.9,0,0,0-1.039.283,2.114,2.114,0,0,0-.732.779v9.089H167.5V73.236Z" transform="translate(-132.255 -67.759)" fill="#fff"/>
      <path id="Path_4" data-name="Path 4" d="M269.663,62.91a10.86,10.86,0,0,1-.307,2.715,6.588,6.588,0,0,1-.921,2.1,4.224,4.224,0,0,1-1.582,1.369,4.863,4.863,0,0,1-2.266.5,3.789,3.789,0,0,1-1.841-.425,4.188,4.188,0,0,1-1.346-1.157l-.165,1.346H257.6V50.8h4.06v6.516a3.6,3.6,0,0,1,1.275-.944,3.731,3.731,0,0,1,1.676-.33,4.863,4.863,0,0,1,2.266.5,4.26,4.26,0,0,1,1.582,1.393,6.058,6.058,0,0,1,.921,2.1,10.418,10.418,0,0,1,.307,2.644v.236Zm-4.084-.26a12.189,12.189,0,0,0-.071-1.346,3.06,3.06,0,0,0-.307-1.11,1.932,1.932,0,0,0-.614-.755,1.745,1.745,0,0,0-1.039-.283,2.5,2.5,0,0,0-1.18.26,1.884,1.884,0,0,0-.708.779v5.194a1.884,1.884,0,0,0,.708.779,2.278,2.278,0,0,0,1.2.26,1.962,1.962,0,0,0,1.062-.26,1.709,1.709,0,0,0,.614-.732,3.632,3.632,0,0,0,.283-1.11,13.357,13.357,0,0,0,.071-1.44v-.236h-.024Z" transform="translate(-201.085 -50.8)" fill="#fff"/>
      <path id="Path_5" data-name="Path 5" d="M321.655,86.138a1.863,1.863,0,0,1-.212-.543c-.047-.212-.118-.4-.165-.637a3.447,3.447,0,0,1-1.228.991,3.831,3.831,0,0,1-1.912.4,4.807,4.807,0,0,1-3.116-1.086,3.786,3.786,0,0,1-.968-1.228,3.535,3.535,0,0,1-.354-1.582,4.108,4.108,0,0,1,.378-1.818,3.4,3.4,0,0,1,1.133-1.346,5.985,5.985,0,0,1,1.912-.85,11.529,11.529,0,0,1,2.738-.307h1.251v-.685a2.2,2.2,0,0,0-.354-1.322,1.368,1.368,0,0,0-1.2-.472,1.443,1.443,0,0,0-1.062.354,1.36,1.36,0,0,0-.378,1.062h-4.06a3.829,3.829,0,0,1,.4-1.7,3.916,3.916,0,0,1,1.157-1.346,5.81,5.81,0,0,1,1.794-.9,8.147,8.147,0,0,1,2.361-.33,7.926,7.926,0,0,1,2.172.283,5.159,5.159,0,0,1,1.723.873A3.886,3.886,0,0,1,324.8,75.42a4.587,4.587,0,0,1,.4,2.03v5.335c0,.425.024.8.047,1.11a6.94,6.94,0,0,0,.118.826c.047.236.118.449.165.637a3.474,3.474,0,0,0,.236.519v.212h-4.108Zm-2.549-2.668a2.293,2.293,0,0,0,1.251-.33,2.072,2.072,0,0,0,.708-.732V80.331h-1.275a2.372,2.372,0,0,0-.968.165,1.776,1.776,0,0,0-.637.425,1.555,1.555,0,0,0-.331.614,2.436,2.436,0,0,0-.094.708,1.128,1.128,0,0,0,.378.9A1.549,1.549,0,0,0,319.106,83.47Z" transform="translate(-243.942 -67.606)" fill="#fff"/>
    </g>
    <circle id="Ellipse_1" data-name="Ellipse 1" cx="1.369" cy="1.369" r="1.369" transform="translate(102.453 66.569)" fill="#e13189"/>
  </g>
</svg>
