<?xml version="1.0" encoding="utf-8"?>
<!-- Generator: Adobe Illustrator 27.7.0, SVG Export Plug-In . SVG Version: 6.00 Build 0)  -->
<svg version="1.1" id="Laag_1" xmlns="http://www.w3.org/2000/svg" xmlns:xlink="http://www.w3.org/1999/xlink" x="0px" y="0px"
	 viewBox="0 0 400 200" style="enable-background:new 0 0 400 200;" xml:space="preserve">
<style type="text/css">
	.st0{fill:#FFFFFF;}
	.st1{fill:#E13189;}
</style>
<g>
	<path class="st0" d="M34.3,74l0.6,6.5c1.8-2.4,4.1-4.2,6.7-5.5s5.6-2,9.1-2c3.2,0,6.1,0.7,8.5,2c2.5,1.3,4.3,3.4,5.6,6.4
		c1.8-2.6,4-4.7,6.7-6.1c2.7-1.5,5.9-2.2,9.6-2.2c2.5,0,4.8,0.4,6.9,1.1s3.9,1.9,5.5,3.6c1.5,1.7,2.7,3.9,3.6,6.6s1.3,6.1,1.3,10.1
		v34.8H81.1V94.5c0-1.7-0.2-3.1-0.5-4.2s-0.7-1.9-1.3-2.5c-0.6-0.6-1.3-1-2.1-1.2c-0.8-0.2-1.8-0.3-2.8-0.3c-1.8,0-3.3,0.4-4.5,1.2
		c-1.3,0.8-2.3,1.9-3.1,3.3c0,0.3,0.1,0.5,0.1,0.8s0,0.5,0,0.8v36.9H49.6V94.6c0-1.7-0.1-3.2-0.4-4.2c-0.3-1.1-0.7-1.9-1.3-2.6
		c-0.6-0.6-1.3-1-2.1-1.2C45,86.4,44,86.2,43,86.2c-1.7,0-3.1,0.4-4.4,1.2c-1.3,0.8-2.3,1.9-3.1,3.3v38.5H18.2V74H34.3z"/>
	<path class="st0" d="M141.1,123.3c-1.7,2.2-3.8,3.9-6.3,5.2c-2.5,1.3-5.3,1.8-8.5,1.8c-2.7,0-5.2-0.4-7.5-1.2s-4.2-2-5.8-3.6
		c-1.6-1.7-2.9-3.8-3.8-6.4s-1.4-5.7-1.4-9.4V74H125v35.9c0,2.5,0.6,4.3,1.8,5.4c1.2,1.1,2.9,1.7,5.1,1.7c2.1,0,3.9-0.4,5.2-1.1
		s2.4-1.8,3.2-3.1V74h17.3v55.3h-16.1L141.1,123.3z"/>
	<path class="st0" d="M183.5,74l0.6,6.5c1.8-2.4,4.1-4.2,6.7-5.5s5.6-2,9.1-2c3.2,0,6.1,0.7,8.5,2c2.5,1.3,4.3,3.4,5.6,6.4
		c1.8-2.6,4-4.7,6.7-6.1c2.7-1.5,5.9-2.2,9.6-2.2c2.5,0,4.8,0.4,6.9,1.1c2.1,0.7,3.9,1.9,5.5,3.6c1.5,1.7,2.7,3.9,3.6,6.6
		s1.3,6.1,1.3,10.1v34.8h-17.3V94.5c0-1.7-0.2-3.1-0.5-4.2s-0.7-1.9-1.3-2.5s-1.3-1-2.1-1.2s-1.8-0.3-2.8-0.3
		c-1.8,0-3.3,0.4-4.5,1.2c-1.3,0.8-2.3,1.9-3.1,3.3c0,0.3,0.1,0.5,0.1,0.8s0,0.5,0,0.8v36.9h-17.3V94.6c0-1.7-0.1-3.2-0.4-4.2
		c-0.3-1.1-0.7-1.9-1.3-2.6c-0.6-0.6-1.3-1-2.1-1.2s-1.8-0.3-2.8-0.3c-1.7,0-3.1,0.4-4.4,1.2c-1.3,0.8-2.3,1.9-3.1,3.3v38.5h-17.2
		V74H183.5z"/>
	<path class="st0" d="M308.7,102.1c0,4.2-0.4,8-1.3,11.5s-2.2,6.4-3.9,8.9s-4,4.4-6.7,5.8c-2.7,1.4-5.9,2.1-9.6,2.1
		c-3,0-5.6-0.6-7.8-1.8c-2.2-1.2-4.1-2.8-5.7-4.9l-0.7,5.7h-15.4V50.8h17.2v27.6c1.5-1.7,3.3-3.1,5.4-4c2-1,4.4-1.4,7.1-1.4
		c3.7,0,6.9,0.7,9.6,2.1s4.9,3.3,6.7,5.9s3.1,5.5,3.9,8.9c0.9,3.4,1.3,7.2,1.3,11.2v1H308.7z M291.4,101c0-2-0.1-3.9-0.3-5.7
		c-0.2-1.8-0.6-3.4-1.3-4.7c-0.6-1.3-1.5-2.4-2.6-3.2c-1.1-0.8-2.6-1.2-4.4-1.2c-2,0-3.7,0.4-5,1.1c-1.3,0.8-2.3,1.9-3,3.3v22
		c0.7,1.4,1.7,2.5,3,3.3s3,1.1,5.1,1.1c1.9,0,3.4-0.4,4.5-1.1s2-1.8,2.6-3.1s1-2.9,1.2-4.7c0.2-1.8,0.3-3.9,0.3-6.1v-1L291.4,101
		L291.4,101z"/>
	<path class="st0" d="M347.4,129.3c-0.4-0.7-0.7-1.4-0.9-2.3s-0.5-1.7-0.7-2.7c-1.3,1.7-3,3.1-5.2,4.2c-2.1,1.2-4.8,1.7-8.1,1.7
		c-2.6,0-5-0.4-7.2-1.2c-2.3-0.8-4.2-2-6-3.4c-1.7-1.4-3.1-3.2-4.1-5.2s-1.5-4.3-1.5-6.7c0-2.9,0.5-5.4,1.6-7.7
		c1-2.2,2.6-4.1,4.8-5.7c2.1-1.5,4.8-2.7,8.1-3.6c3.3-0.8,7.1-1.3,11.6-1.3h5.3v-2.9c0-2.4-0.5-4.2-1.5-5.6s-2.7-2-5.1-2
		c-2,0-3.5,0.5-4.5,1.5c-1.1,1-1.6,2.5-1.6,4.5h-17.2c0-2.6,0.6-4.9,1.7-7.2c1.1-2.2,2.8-4.1,4.9-5.7s4.7-2.9,7.6-3.8
		c3-0.9,6.3-1.4,10-1.4c3.3,0,6.4,0.4,9.2,1.2c2.8,0.8,5.2,2.1,7.3,3.7s3.6,3.7,4.8,6.2c1.2,2.5,1.7,5.3,1.7,8.6v22.6
		c0,1.8,0.1,3.4,0.2,4.7c0.1,1.3,0.3,2.5,0.5,3.5s0.5,1.9,0.7,2.7c0.3,0.8,0.6,1.5,1,2.2v0.9h-17.4L347.4,129.3L347.4,129.3z
		 M336.6,118c2.1,0,3.9-0.5,5.3-1.4s2.4-2,3-3.1v-8.8h-5.4c-1.6,0-3,0.2-4.1,0.7s-2,1-2.7,1.8s-1.1,1.6-1.4,2.6s-0.4,2-0.4,3
		c0,1.6,0.5,2.8,1.6,3.8C333.7,117.5,335,118,336.6,118z"/>
</g>
<g>
	<path class="st1" d="M145.2,166.6l0.3,4.2l2.1-4.3l7-14.6h1l2,14.6l0.5,4.4l1.9-4.4l6.5-14.5h1.2l-9.3,20.5h-1l-2.3-15.5l-0.3-3.5
		l-1.7,3.7l-7.5,15.3h-1l-2.3-20.5h1.1L145.2,166.6z"/>
	<path class="st1" d="M176.5,172.9c-0.9,0-1.8-0.1-2.5-0.4c-0.7-0.3-1.4-0.7-2-1.1c-0.6-0.5-1-1.1-1.4-1.7c-0.4-0.7-0.7-1.4-0.9-2.1
		c-0.2-0.8-0.3-1.5-0.4-2.4s0-1.6,0.1-2.4l0.1-0.8c0.1-0.8,0.4-1.6,0.7-2.5c0.3-0.8,0.7-1.6,1.1-2.4c0.4-0.8,0.9-1.5,1.5-2.1
		c0.6-0.7,1.2-1.2,1.9-1.7s1.5-0.9,2.3-1.1c0.8-0.3,1.7-0.4,2.6-0.4c1.2,0,2.3,0.3,3.1,0.8c0.9,0.5,1.5,1.2,2,2s0.8,1.8,1,2.8
		s0.2,2.1,0,3.2l-0.2,1.2h-14.9l-0.1,0.3l-0.2,0.8c-0.1,0.7-0.2,1.4-0.2,2.1s0.1,1.4,0.3,2.1c0.2,0.7,0.4,1.3,0.7,1.9
		c0.3,0.6,0.7,1.1,1.2,1.6s1.1,0.8,1.7,1.1s1.4,0.4,2.2,0.4c1.3,0,2.5-0.2,3.5-0.7s2-1.2,2.9-2.1l0.7,0.5c-0.9,1-2,1.8-3.2,2.4
		C179.2,172.6,177.9,172.9,176.5,172.9z M179.6,152.6c-1.1,0-2.2,0.2-3.1,0.7c-0.9,0.5-1.8,1.1-2.5,1.8s-1.4,1.6-1.9,2.5
		s-1,1.9-1.3,2.9h13.8l0.1-0.2c0.2-0.9,0.2-1.8,0.1-2.7s-0.4-1.7-0.8-2.5s-1-1.3-1.7-1.8C181.5,152.8,180.6,152.6,179.6,152.6z"/>
	<path class="st1" d="M205.4,162.4c-0.1,0.8-0.3,1.6-0.6,2.4c-0.2,0.8-0.6,1.6-0.9,2.4c-0.4,0.8-0.8,1.5-1.3,2.2s-1.1,1.3-1.7,1.8
		s-1.3,0.9-2.1,1.2s-1.6,0.4-2.6,0.4c-0.7,0-1.3-0.1-1.9-0.2s-1.2-0.4-1.7-0.7s-1-0.7-1.5-1.1c-0.4-0.5-0.8-1-1.1-1.6l-0.6,3.2h-1
		l5-29.1h1l-2.2,12.3c0.4-0.6,0.9-1.2,1.5-1.7c0.5-0.5,1.1-0.9,1.7-1.3c0.6-0.4,1.3-0.6,2-0.8s1.5-0.3,2.2-0.3
		c0.9,0,1.8,0.2,2.5,0.5s1.3,0.7,1.7,1.2c0.5,0.5,0.8,1.1,1.1,1.8s0.5,1.4,0.6,2.2s0.2,1.6,0.1,2.4c0,0.8-0.1,1.6-0.2,2.3V162.4z
		 M204.4,162c0.1-0.6,0.2-1.3,0.2-2s0-1.4,0-2.1c-0.1-0.7-0.2-1.4-0.4-2s-0.5-1.2-0.9-1.7s-0.9-0.9-1.5-1.2s-1.3-0.4-2.2-0.4
		c-0.8,0-1.6,0.1-2.4,0.4c-0.8,0.3-1.6,0.6-2.3,1.1s-1.3,1-1.9,1.7c-0.5,0.6-0.9,1.4-1.2,2.1l-1.7,9.4c0.2,0.7,0.4,1.4,0.8,2
		c0.4,0.6,0.8,1,1.3,1.4s1.1,0.7,1.8,0.9s1.4,0.3,2.1,0.3c0.8,0,1.6-0.1,2.3-0.4c0.7-0.3,1.3-0.6,1.9-1.1c0.6-0.5,1.1-1,1.5-1.6
		s0.8-1.3,1.1-2s0.6-1.4,0.8-2.2c0.2-0.7,0.4-1.5,0.5-2.2L204.4,162z"/>
	<path class="st1" d="M231.7,167.5c0.2-0.8,0.1-1.5-0.2-2c-0.3-0.6-0.7-1.1-1.2-1.5s-1.1-0.7-1.8-1s-1.3-0.5-1.9-0.6
		c-0.7-0.2-1.5-0.4-2.3-0.7s-1.4-0.6-2-1s-1-1-1.4-1.6c-0.3-0.6-0.4-1.4-0.3-2.4c0.1-0.9,0.4-1.6,0.9-2.3s1.1-1.2,1.8-1.6
		c0.7-0.4,1.4-0.7,2.3-1s1.6-0.3,2.4-0.3c0.9,0,1.8,0.1,2.6,0.4c0.8,0.2,1.5,0.6,2.1,1.1s1,1.1,1.3,1.8s0.4,1.6,0.3,2.6h-1
		c0.1-0.8,0-1.5-0.3-2.1s-0.6-1.1-1.1-1.5s-1.1-0.7-1.8-0.9s-1.4-0.3-2.1-0.3c-0.7,0-1.4,0.1-2,0.2c-0.7,0.2-1.3,0.4-1.9,0.7
		c-0.6,0.3-1.1,0.8-1.5,1.3s-0.7,1.1-0.9,1.9c-0.2,0.8-0.1,1.5,0.2,2s0.7,1,1.2,1.3c0.5,0.4,1.1,0.6,1.8,0.9s1.3,0.4,1.9,0.6
		c0.8,0.2,1.5,0.4,2.3,0.7s1.4,0.7,2,1.1c0.6,0.5,1,1,1.3,1.7s0.4,1.5,0.3,2.4c-0.1,0.9-0.5,1.7-1,2.4s-1.1,1.2-1.8,1.7
		c-0.7,0.4-1.5,0.8-2.4,1s-1.7,0.3-2.6,0.3c-0.9,0-1.7-0.1-2.5-0.3s-1.6-0.5-2.2-1s-1.2-1-1.5-1.7c-0.4-0.7-0.5-1.5-0.4-2.5h1
		c0,0.8,0.1,1.5,0.4,2.1s0.7,1.1,1.3,1.4c0.5,0.4,1.1,0.6,1.8,0.8s1.4,0.2,2.2,0.2c0.7,0,1.4-0.1,2.1-0.3c0.7-0.2,1.4-0.4,2.1-0.8
		c0.6-0.4,1.2-0.8,1.7-1.4C231.2,168.9,231.5,168.2,231.7,167.5z"/>
	<path class="st1" d="M237.7,161.8c0.2-1.3,0.6-2.6,1.2-3.8s1.3-2.3,2.2-3.3s1.9-1.7,3.1-2.3c1.2-0.6,2.5-0.9,3.9-0.9
		s2.6,0.3,3.6,0.9c1,0.6,1.8,1.4,2.3,2.4s0.9,2.1,1.1,3.3s0.2,2.5,0,3.7l-0.1,0.8c-0.2,1.3-0.6,2.6-1.2,3.8s-1.3,2.3-2.2,3.3
		s-1.9,1.7-3.1,2.3c-1.2,0.6-2.5,0.9-3.9,0.9s-2.6-0.3-3.6-0.9c-1-0.6-1.8-1.4-2.3-2.4c-0.6-1-1-2.1-1.1-3.3c-0.2-1.2-0.2-2.5,0-3.7
		L237.7,161.8z M238.6,162.6c-0.1,0.7-0.2,1.4-0.2,2.2c0,0.7,0.1,1.4,0.3,2.1s0.4,1.3,0.7,1.9c0.3,0.6,0.7,1.1,1.2,1.6
		c0.5,0.4,1.1,0.8,1.7,1s1.4,0.4,2.3,0.4c1.3,0,2.4-0.3,3.5-0.8s2-1.2,2.8-2.1c0.8-0.9,1.5-1.9,2-3s0.9-2.2,1.1-3.4l0.1-0.8
		c0.1-0.7,0.2-1.4,0.2-2.2c0-0.7-0.1-1.4-0.3-2.1c-0.2-0.7-0.4-1.3-0.7-1.9s-0.7-1.1-1.2-1.6s-1.1-0.8-1.7-1.1s-1.4-0.4-2.2-0.4
		c-1.3,0-2.4,0.3-3.5,0.8c-1,0.5-2,1.2-2.8,2.1s-1.5,1.9-2,3s-0.9,2.2-1.1,3.4L238.6,162.6z"/>
	<path class="st1" d="M259.5,172.5h-1l5-29.1h1L259.5,172.5z"/>
	<path class="st1" d="M279.5,172.5l0.6-3.3c-0.9,1.2-2,2.2-3.3,2.8s-2.7,0.9-4.2,0.9c-1.2,0-2.1-0.2-2.9-0.6c-0.8-0.4-1.3-1-1.8-1.7
		s-0.7-1.6-0.7-2.5c-0.1-0.9-0.1-1.9,0.1-3l2.2-13h1l-2.3,13.1c-0.1,0.9-0.2,1.7-0.1,2.5c0,0.8,0.2,1.5,0.5,2.2s0.8,1.1,1.4,1.5
		s1.4,0.6,2.5,0.6c0.9,0,1.7-0.1,2.5-0.4s1.6-0.6,2.3-1.1s1.3-1,1.9-1.7s0.9-1.4,1.2-2.3l2.5-14.4h1l-3.5,20.5h-0.9L279.5,172.5
		L279.5,172.5z"/>
	<path class="st1" d="M293.8,146.4l-0.9,5.5h4.5l-0.1,1h-4.5l-2.5,14.6c-0.1,0.5-0.1,1-0.2,1.5c0,0.5,0,1,0.2,1.4
		c0.1,0.4,0.4,0.7,0.7,1c0.3,0.3,0.8,0.4,1.4,0.4c0.4,0,0.7,0,1-0.1c0.3,0,0.7-0.1,1-0.1v1c-0.3,0.1-0.7,0.1-1,0.2c-0.3,0-0.7,0-1,0
		c-0.8,0-1.5-0.1-1.9-0.4c-0.5-0.3-0.8-0.7-1.1-1.2c-0.2-0.5-0.4-1-0.4-1.7c0-0.6,0-1.3,0.1-2l2.5-14.6h-3.7l0.2-1h3.7l0.9-5.5
		L293.8,146.4L293.8,146.4z"/>
	<path class="st1" d="M300.4,172.5h-1l3.5-20.5h1L300.4,172.5z M303.5,145.5c0-0.3,0.2-0.5,0.4-0.7c0.2-0.2,0.5-0.3,0.7-0.3
		c0.3,0,0.5,0.1,0.7,0.3s0.2,0.5,0.2,0.8s-0.2,0.5-0.4,0.7c-0.2,0.2-0.5,0.3-0.8,0.3s-0.5-0.1-0.7-0.3S303.4,145.8,303.5,145.5z"/>
	<path class="st1" d="M307.4,161.8c0.2-1.3,0.6-2.6,1.2-3.8s1.3-2.3,2.2-3.3c0.9-1,1.9-1.7,3.1-2.3s2.5-0.9,3.9-0.9s2.6,0.3,3.6,0.9
		c1,0.6,1.8,1.4,2.3,2.4s0.9,2.1,1.1,3.3s0.2,2.5,0,3.7l-0.1,0.8c-0.2,1.3-0.6,2.6-1.2,3.8s-1.3,2.3-2.2,3.3c-0.9,1-1.9,1.7-3.1,2.3
		s-2.5,0.9-3.9,0.9s-2.6-0.3-3.6-0.9c-1-0.6-1.8-1.4-2.3-2.4c-0.6-1-1-2.1-1.1-3.3c-0.2-1.2-0.2-2.5,0-3.7L307.4,161.8z
		 M308.3,162.6c-0.1,0.7-0.2,1.4-0.2,2.2c0,0.7,0.1,1.4,0.3,2.1s0.4,1.3,0.7,1.9c0.3,0.6,0.7,1.1,1.2,1.6c0.5,0.4,1.1,0.8,1.7,1
		s1.4,0.4,2.3,0.4c1.3,0,2.4-0.3,3.5-0.8s2-1.2,2.8-2.1c0.8-0.9,1.5-1.9,2-3s0.9-2.2,1.1-3.4l0.1-0.8c0.1-0.7,0.2-1.4,0.2-2.2
		c0-0.7-0.1-1.4-0.3-2.1c-0.2-0.7-0.4-1.3-0.7-1.9s-0.7-1.1-1.2-1.6s-1.1-0.8-1.7-1.1s-1.4-0.4-2.2-0.4c-1.3,0-2.4,0.3-3.5,0.8
		c-1,0.5-2,1.2-2.8,2.1s-1.5,1.9-2,3s-0.9,2.2-1.1,3.4L308.3,162.6z"/>
	<path class="st1" d="M333.1,154.8c0.6-0.6,1.2-1.2,1.8-1.6s1.4-0.8,2.2-1.1c0.8-0.3,1.6-0.4,2.4-0.4c1.2,0,2.1,0.2,2.9,0.6
		c0.7,0.4,1.3,1,1.7,1.7c0.4,0.7,0.6,1.5,0.7,2.4s0,1.9-0.1,2.9l-2.3,13.3h-1l2.3-13.3c0.1-0.9,0.2-1.7,0.2-2.5s-0.2-1.5-0.5-2.1
		s-0.7-1.1-1.4-1.5c-0.6-0.4-1.4-0.5-2.4-0.5c-0.9,0-1.8,0.2-2.7,0.6s-1.7,0.9-2.4,1.5c-0.7,0.6-1.4,1.3-1.9,2.2s-1,1.6-1.2,2.5
		l-2.3,13.1h-1l3.5-20.5h1l-0.9,4.8C332.1,156,332.5,155.4,333.1,154.8z"/>
	<path class="st1" d="M362,167.5c0.2-0.8,0.1-1.5-0.2-2c-0.3-0.6-0.7-1.1-1.2-1.5s-1.1-0.7-1.8-1s-1.3-0.5-1.9-0.6
		c-0.7-0.2-1.5-0.4-2.3-0.7s-1.4-0.6-2-1s-1-1-1.4-1.6c-0.3-0.6-0.4-1.4-0.3-2.4c0.1-0.9,0.4-1.6,0.9-2.3s1.1-1.2,1.8-1.6
		c0.7-0.4,1.4-0.7,2.3-1s1.6-0.3,2.4-0.3c0.9,0,1.8,0.1,2.6,0.4c0.8,0.2,1.5,0.6,2.1,1.1s1,1.1,1.3,1.8s0.4,1.6,0.3,2.6h-1
		c0.1-0.8,0-1.5-0.3-2.1s-0.6-1.1-1.1-1.5s-1.1-0.7-1.8-0.9c-0.7-0.2-1.4-0.3-2.1-0.3s-1.4,0.1-2,0.2c-0.7,0.2-1.3,0.4-1.9,0.7
		s-1.1,0.8-1.5,1.3s-0.7,1.1-0.9,1.9c-0.2,0.8-0.1,1.5,0.2,2c0.3,0.5,0.7,1,1.2,1.3c0.5,0.4,1.1,0.6,1.8,0.9s1.3,0.4,1.9,0.6
		c0.8,0.2,1.5,0.4,2.3,0.7s1.4,0.7,2,1.1c0.6,0.5,1,1,1.3,1.7s0.4,1.5,0.3,2.4s-0.5,1.7-1,2.4s-1.1,1.2-1.8,1.7
		c-0.7,0.4-1.5,0.8-2.4,1s-1.7,0.3-2.6,0.3s-1.7-0.1-2.5-0.3s-1.6-0.5-2.2-1s-1.2-1-1.5-1.7c-0.4-0.7-0.5-1.5-0.4-2.5h1
		c0,0.8,0.1,1.5,0.4,2.1s0.7,1.1,1.3,1.4s1.1,0.6,1.8,0.8c0.7,0.2,1.4,0.2,2.2,0.2c0.7,0,1.4-0.1,2.1-0.3s1.4-0.4,2.1-0.8
		c0.6-0.4,1.2-0.8,1.7-1.4S361.9,168.2,362,167.5z"/>
</g>
<circle class="st1" cx="380.9" cy="123.4" r="5.8"/>
</svg>
