<?xml version="1.0" encoding="utf-8"?>
<!-- Generator: Adobe Illustrator 22.0.1, SVG Export Plug-In . SVG Version: 6.00 Build 0)  -->
<svg version="1.1" id="Laag_1" xmlns="http://www.w3.org/2000/svg" xmlns:xlink="http://www.w3.org/1999/xlink" x="0px" y="0px"
	 viewBox="0 0 800 800" style="enable-background:new 0 0 800 800;" xml:space="preserve">
<style type="text/css">
	.st0{fill:none;}
	.st1{fill:#FFFFFF;}
</style>
<g>
	<polygon class="st0" points="423.4,119.6 417.8,121.7 432.4,139.7 447,148.8 458.3,139 452.3,125.1 	"/>
	<path d="M578.9,422.5l0-0.2l0,0l-0.4-8.7l-0.8-19.7l-0.6-0.4l-10.4-7.2l-6.7-9l-0.7-7.1l6.1-6.7l5.8-6.7l4.4-7.9l0.1-7.1
		l-20.9-42.5l3.8-8.5l6.4-11.7l-1.1-10.7l-6.3-18.1l-2-8l-9.9,5.6l6.8,26.4l-12.4-1.6l-17.7,5.9l5.8,3.4l9.9-2.3l29.2,67.9l-6.1,8.4
		l0,0l-22,0l-10.5-4.7l-10.3,5.2c-1.2,0.6-2.3,1.3-3.3,2.2l0,0l-3.7,2.9l-2.2,9.1l-8.3,5h0l-5,3c0,0-8.7,7.8-9.8,8.1
		c-1.1,0.3-5.5,4.5-6.4,4.7c-0.9,0.3-11.3,5.3-11.3,5.3l-1.1,45.3l-2.6,0.4l-13-16.1l-14.4-17.8c-1.5-1.9-3.2-3.6-5-5.1l-3.9-3.3
		l-3.5-3.1c-2.3-2-5-3.5-7.9-4.5l-27.7-9.4l-33.5,43.7l22.7,50.7l72.9,8.1l4.9,24l22.8,8.6l5.2,1.1l0.9,1l-0.4-0.9l76.2,15.9
		l5.7-31.1l15.2-12.2l0.3-15l-6.6-38.2L578.9,422.5z M549.3,422.3l-33,15.6l-0.9-2.7l8.2-14.7l28.7-11.4L549.3,422.3z"/>
	<polygon points="476,298.9 482.2,309.5 500.3,301.5 504.5,284.4 472.3,278.5 450.7,279.1 435.9,286.2 447.2,302.4 457.2,296.4 	"/>
	<polygon points="384.6,308.2 363.7,282.3 356.1,321.5 322.4,351 294.2,419.6 279,456.9 265.4,488 295.5,508.4 307.3,502.1 
		325.8,522.6 327.6,447 349.4,396.7 355.2,370.7 378.3,347.2 	"/>
	<polygon points="352.9,267.6 334.8,240.7 287.9,298.6 228.6,368.3 206.7,406.6 236.9,468.1 314.8,306.4 	"/>
	<polygon points="301.2,186.6 212.9,263.9 198.1,285.3 195.5,361.4 319.4,222.1 305.9,205 	"/>
	<path d="M290.2,160.5L276.7,138l-73.6,51.6l-2.9,25.3c-0.1,1-0.2,2.1-0.2,3.2l0,24.9L290.2,160.5z"/>
	<path d="M612.9,125.1l-29.9-6.6l-17.9-8.5c-2-0.9-4.1-1.5-6.3-1.6l-33.1-2.1c-5-0.3-10-0.2-14.9,0.3l-32.1,3.4l-12.5-15.1
		l-41.9-2.7l-48.1,3.9l-20.4-22.6c-1.4-1.6-3.2-2.6-5.3-3.1l-13.3-3.2c-3.8-0.9-7.8-0.3-11.2,1.6l-3.4,1.9
		c-9.6,5.6-18.4,12.5-26.1,20.5l-9.4,9.9c-3.4,3.6-3.9,9-1.3,13.1l26.2,41.5l5.4,35.5l37.2,43.4l35.8,49.1l13.8-35.1l41.4-16.6
		l-19.4,34.6l30.3-12.3l70.3-2.9l24.3-29.3l22,2.4l28.4-14.9l-13.8-22.5l-30.9,0.9l14.1-13.1l9.4-8.7l10.5-19.7l6.1,11.5l-7.1,20
		l14.8,15.3l6.6-23.2l3.8-31.3c0.2-1.3,0.1-2.7-0.1-4L612.9,125.1z M447,148.8l-14.6-9.1l-14.5-18l5.6-2.1l28.9,5.4l5.9,14
		L447,148.8z"/>
	<polygon points="357.4,505.6 360.3,542.3 359.5,559 384.7,570.5 400.8,567.6 408.2,552.3 418.2,546.1 430.1,519.7 431.8,507.4 
		388.3,500.1 	"/>
	<polygon class="st1" points="515.5,435.2 516.3,437.9 549.3,422.3 552.3,409.1 523.7,420.5 	"/>
</g>
<polygon class="st1" points="350.1,98 318.6,102.5 318.6,102.5 318.6,102.5 318.9,93.5 337.9,83.5 "/>
<g>
	<path d="M231,712.5l5.5-30.9h-23l-5.5,30.9h-26.3L196,632h26.1l-4.9,27.6h23l4.9-27.6h26.4l-14.2,80.5H231z"/>
	<path d="M326.3,712.5l-1.8-12.3h-26.1l-6.7,12.3h-29.3l49.4-80.5h27.7l14.1,80.5H326.3z M319.9,659.4l-11.5,20.7h13.9L319.9,659.4z
		"/>
	<path d="M396.6,654.2l-1.7,9.2h24.8l-3.8,21.4h-24.7l-4.9,27.7h-25.8l14.2-80.5h51.8l-3.9,22.2H396.6z"/>
	<path d="M493.4,707.5c-2.1,1.4-4.5,2.6-7.1,3.7c-2.7,1.1-5.6,1.9-8.9,2.6c-3.3,0.7-7,1-11,1c-6.1,0-11.5-0.8-16.2-2.5
		c-4.7-1.7-8.8-4.1-12-7.2c-3.3-3.1-5.8-6.9-7.6-11.3c-1.7-4.4-2.6-9.3-2.6-14.7c0-6.9,1.2-13.3,3.6-19.3c2.4-6,5.7-11.2,10.1-15.7
		c4.3-4.5,9.4-8,15.3-10.6c5.9-2.6,12.4-3.9,19.4-3.9c7,0,13.1,1.1,18.4,3.2c5.3,2.2,9.4,4.8,12.2,8l-18.3,18.9
		c-1.4-2-3.2-3.4-5.4-4.4c-2.2-0.9-4.8-1.4-7.6-1.4c-2.9,0-5.5,0.6-7.8,1.8c-2.3,1.2-4.4,2.8-6,4.8c-1.7,2-3,4.3-3.9,7
		c-0.9,2.7-1.4,5.5-1.4,8.5c0,3.9,1.2,7.3,3.7,10c2.5,2.7,6.2,4.1,11.1,4.1c2.9,0,5.6-0.6,8.1-1.8c2.5-1.2,4.7-2.7,6.5-4.4l13,19.3
		C497.3,704.7,495.5,706.1,493.4,707.5z"/>
	<path d="M517.3,706.9c0,1.7-0.6,3.1-1.8,4.4c-1.2,1.2-2.6,1.9-4.4,1.9c-1.7,0-3.1-0.5-4.3-1.6c-1.2-1.1-1.8-2.5-1.8-4.3
		s0.6-3.3,1.9-4.5c1.2-1.2,2.7-1.8,4.4-1.8c1.7,0,3.1,0.5,4.2,1.6C516.8,703.6,517.3,705,517.3,706.9z"/>
	<path d="M552.5,659.3c-0.2,1.4-0.3,3-0.6,4.8c-0.2,1.7-0.5,3.2-0.7,4.3h0.2c2.1-3.3,4.7-5.8,7.9-7.7c3.2-1.9,6.7-2.8,10.3-2.8
		c5.8,0,10.3,1.5,13.5,4.4c3.2,2.9,4.8,6.9,4.8,11.9c0,0.9-0.1,1.8-0.2,2.7c-0.1,0.9-0.2,1.9-0.4,3l-5.9,32.6h-7.6l5.2-29.4
		c0.5-2.3,0.7-4.6,0.7-6.7c0-3.7-0.9-6.6-2.6-8.8c-1.7-2.2-4.8-3.2-9.2-3.2c-2,0-4.1,0.4-6.1,1.3c-2,0.8-4,2.1-5.7,3.9
		c-1.8,1.7-3.4,3.9-4.7,6.5s-2.3,5.7-3,9.3l-4.8,27.3h-7.6l7.3-41.5c0.3-1.4,0.6-3.3,1-5.6c0.3-2.3,0.6-4.3,0.7-6.1H552.5z"/>
	<path d="M609.6,712.5h-7.7l15.1-85.9h7.7L609.6,712.5z"/>
</g>
</svg>
