<?xml version="1.0" encoding="UTF-8"?>
<svg width="106px" height="32px" viewBox="0 0 106 32" version="1.1" xmlns="http://www.w3.org/2000/svg" xmlns:xlink="http://www.w3.org/1999/xlink">
    <defs>
        <polygon id="path-1" points="0 0 105.540547 0 105.540547 31.525 0 31.525"></polygon>
    </defs>
    <g id="Symbols" stroke="none" stroke-width="1" fill="none" fill-rule="evenodd">
        <g id="Artboard" transform="translate(-147.000000, -51.000000)">
            <g id="Group" transform="translate(147.000000, 51.000000)">
                <path d="M84.3754286,23.7666974 L85.8281006,23.7666974 L85.8281006,14.0311472 L84.3754286,14.0311472 L84.3754286,23.7666974 Z M97.4646086,17.537988 L95.7981972,21.759816 L95.749018,21.759816 L94.0201872,17.537988 L92.4540252,17.537988 L95.0472714,23.4375766 L93.5681186,26.7193292 L95.0851014,26.7193292 L99.0799494,17.537988 L97.4646086,17.537988 Z M89.2214514,22.66017 C88.7466852,22.66017 88.0827686,22.4237326 88.0827686,21.8335846 C88.0827686,21.0826592 88.909354,20.7951512 89.6224494,20.7951512 C90.2617766,20.7951512 90.5625252,20.9332306 90.9502826,21.1204892 C90.8367926,22.0227346 90.0612774,22.66017 89.2214514,22.66017 M89.3973612,17.32614 C88.3456872,17.32614 87.2561832,17.7895574 86.8041146,18.816642 L88.0941174,19.353828 C88.3702766,18.816642 88.8828732,18.6407326 89.4219506,18.6407326 C90.1747674,18.6407326 90.937042,19.0909094 90.9502826,19.8929054 L90.9502826,19.9931552 C90.687364,19.8437266 90.1236972,19.6167466 89.4351912,19.6167466 C88.0449386,19.6167466 86.6300966,20.3809126 86.6300966,21.8089952 C86.6300966,23.1122386 87.7687794,23.9520646 89.0474334,23.9520646 C90.0234474,23.9520646 90.5625252,23.5132366 90.9011034,22.9987486 L90.9502826,22.9987486 L90.9502826,23.7515654 L92.3537754,23.7515654 L92.3537754,20.0177446 C92.3537754,18.2908052 91.0637726,17.32614 89.3973612,17.32614 M80.4165192,18.7239586 L78.3491094,18.7239586 L78.3491094,15.3854612 L80.4165192,15.3854612 C81.5041314,15.3854612 82.1188692,16.2858152 82.1188692,17.053764 C82.1188692,17.810364 81.5041314,18.7239586 80.4165192,18.7239586 M80.3786892,14.0311472 L76.8964374,14.0311472 L76.8964374,23.7666974 L78.3491094,23.7666974 L78.3491094,20.0782726 L80.3786892,20.0782726 C81.9902472,20.0782726 83.5734326,18.9112172 83.5734326,17.053764 C83.5734326,15.1963112 81.9902472,14.0311472 80.3786892,14.0311472 M61.391812,22.6620614 C60.3874254,22.6620614 59.545708,21.8222354 59.545708,20.6684206 C59.545708,19.5013652 60.3874254,18.6482986 61.391812,18.6482986 C62.382958,18.6482986 63.1603646,19.5013652 63.1603646,20.6684206 C63.1603646,21.8222354 62.382958,22.6620614 61.391812,22.6620614 M63.0582234,18.08274 L63.0090446,18.08274 C62.6837066,17.6949826 62.0557286,17.3431634 61.2650814,17.3431634 C59.6081274,17.3431634 58.0911446,18.7996186 58.0911446,20.6684206 C58.0911446,22.5258734 59.6081274,23.969088 61.2650814,23.969088 C62.0557286,23.969088 62.6837066,23.6172692 63.0090446,23.2162712 L63.0582234,23.2162712 L63.0582234,23.6910374 C63.0582234,24.9583426 62.382958,25.6373912 61.2896712,25.6373912 C60.3987746,25.6373912 59.8464566,24.9961726 59.621368,24.4570952 L58.3540632,24.9848234 C58.7172312,25.8624794 59.6837874,26.9406346 61.2896712,26.9406346 C62.995804,26.9406346 64.4390186,25.9381394 64.4390186,23.4905386 L64.4390186,17.5436626 L63.0582234,17.5436626 L63.0582234,18.08274 Z M65.4434052,23.7666974 L66.89986,23.7666974 L66.89986,14.0311472 L65.4434052,14.0311472 L65.4434052,23.7666974 Z M69.0448212,20.5549306 C69.0069912,19.2743852 70.0359672,18.6237092 70.7755434,18.6237092 C71.3524512,18.6237092 71.8423494,18.9112172 72.0050186,19.3254554 L69.0448212,20.5549306 Z M73.5617232,19.4502946 C73.285564,18.710718 72.445738,17.3431634 70.7244732,17.3431634 C69.0202314,17.3431634 67.6016066,18.6861286 67.6016066,20.65518 C67.6016066,22.5126332 69.0069912,23.969088 70.8890334,23.969088 C72.407908,23.969088 73.285564,23.0403614 73.648732,22.4993926 L72.5195066,21.7465754 C72.143098,22.2988934 71.62861,22.6620614 70.8890334,22.6620614 C70.1494572,22.6620614 69.6217286,22.3253746 69.28315,21.6595666 L73.7111514,19.8285946 L73.5617232,19.4502946 Z M38.2738992,18.3588992 L38.2738992,19.7642834 L41.636986,19.7642834 C41.5367366,20.5549306 41.273818,21.131838 40.8709286,21.532836 C40.3829214,22.0227346 39.616864,22.561812 38.2738992,22.561812 C36.204598,22.561812 34.585474,20.8935092 34.585474,18.824208 C34.585474,16.7530154 36.204598,15.0847126 38.2738992,15.0847126 C39.3917754,15.0847126 40.207012,15.5235406 40.8085092,16.0890992 L41.7996552,15.0960614 C40.9598292,14.2940654 39.843844,13.679328 38.2738992,13.679328 C35.4385406,13.679328 33.0552506,15.9888494 33.0552506,18.824208 C33.0552506,21.6595666 35.4385406,23.969088 38.2738992,23.969088 C39.806014,23.969088 40.9598292,23.4659492 41.863966,22.5258734 C42.7908012,21.5971472 43.0802006,20.292012 43.0802006,19.2384466 C43.0802006,18.9112172 43.0556112,18.6104686 43.0045406,18.3588992 L38.2738992,18.3588992 Z M46.902922,22.6620614 C45.8985354,22.6620614 45.03412,21.835476 45.03412,20.65518 C45.03412,19.4635352 45.8985354,18.6482986 46.902922,18.6482986 C47.9073086,18.6482986 48.771724,19.4635352 48.771724,20.65518 C48.771724,21.835476 47.9073086,22.6620614 46.902922,22.6620614 M46.902922,17.3431634 C45.0700586,17.3431634 43.5776652,18.7353074 43.5776652,20.65518 C43.5776652,22.561812 45.0700586,23.969088 46.902922,23.969088 C48.7357854,23.969088 50.2281792,22.561812 50.2281792,20.65518 C50.2281792,18.7353074 48.7357854,17.3431634 46.902922,17.3431634 M54.1568246,22.6620614 C53.152438,22.6620614 52.2861312,21.835476 52.2861312,20.65518 C52.2861312,19.4635352 53.152438,18.6482986 54.1568246,18.6482986 C55.1593194,18.6482986 56.0256266,19.4635352 56.0256266,20.65518 C56.0256266,21.835476 55.1593194,22.6620614 54.1568246,22.6620614 M54.1568246,17.3431634 C52.3239612,17.3431634 50.8315674,18.7353074 50.8315674,20.65518 C50.8315674,22.561812 52.3239612,23.969088 54.1568246,23.969088 C55.9877966,23.969088 57.4820814,22.561812 57.4820814,20.65518 C57.4820814,18.7353074 55.9877966,17.3431634 54.1568246,17.3431634" id="Shape" fill="#FFFFFF" fill-rule="nonzero"></path>
                <path d="M36.7966374,6.832098 C36.5034552,6.57296262 36.1194806,6.40651062 35.6920014,6.40651062 C34.7349026,6.40651062 33.9972174,7.19715738 33.9972174,8.16749724 C33.9972174,9.139728 34.7349026,9.92280924 35.6920014,9.92280924 C36.5166954,9.92280924 37.1163012,9.44425938 37.1560226,8.685768 L35.8527792,8.685768 L35.8527792,8.148582 L37.8596606,8.148582 C37.8596606,9.75824862 37.0028112,10.5148486 35.6920014,10.5148486 C34.388758,10.5148486 33.3786972,9.465066 33.3786972,8.16749724 C33.3786972,6.86425338 34.388758,5.81257938 35.6920014,5.81257938 C36.2972814,5.81257938 36.8420334,6.04712538 37.24114,6.41785938" id="Path" fill="#FFFFFF" fill-rule="nonzero"></path>
                <polyline id="Path" fill="#FFFFFF" fill-rule="nonzero" points="41.4194634 5.86743324 41.4194634 6.44434062 39.3236814 6.44434062 39.3236814 7.90836138 41.152762 7.90836138 41.152762 8.48716062 39.3236814 8.48716062 39.3236814 9.86984724 41.485666 9.86984724 41.485666 10.448646 38.7051612 10.448646 38.7051612 5.86743324"></polyline>
                <polyline id="Path" fill="#FFFFFF" fill-rule="nonzero" points="45.4294434 5.86743324 45.4294434 6.45190662 44.0391912 6.45190662 44.0391912 10.448646 43.414996 10.448646 43.414996 6.45190662 42.0247434 6.45190662 42.0247434 5.86743324"></polyline>
                <polygon id="Path" fill="#FFFFFF" fill-rule="nonzero" points="47.7767952 10.448646 48.3953154 10.448646 48.3953154 5.86743324 47.7767952 5.86743324"></polygon>
                <polyline id="Path" fill="#FFFFFF" fill-rule="nonzero" points="52.6133606 5.86743324 52.6133606 6.45190662 51.223108 6.45190662 51.223108 10.448646 50.5970214 10.448646 50.5970214 6.45190662 49.2067692 6.45190662 49.2067692 5.86743324"></polyline>
                <path d="M56.9751594,9.91713462 C57.9398246,9.91713462 58.6775094,9.139728 58.6775094,8.16749724 C58.6775094,7.19715738 57.9398246,6.41218524 56.9751594,6.41218524 C56.0180606,6.41218524 55.2803754,7.19715738 55.2803754,8.16749724 C55.2803754,9.139728 56.0180606,9.91713462 56.9751594,9.91713462 M56.9751594,5.81257938 C58.2859692,5.81257938 59.303596,6.86425338 59.303596,8.16749724 C59.303596,9.465066 58.2859692,10.5148486 56.9751594,10.5148486 C55.671916,10.5148486 54.6618552,9.465066 54.6618552,8.16749724 C54.6618552,6.86425338 55.671916,5.81257938 56.9751594,5.81257938" id="Shape" fill="#FFFFFF" fill-rule="nonzero"></path>
                <polyline id="Path" fill="#FFFFFF" fill-rule="nonzero" points="62.9617572 10.448646 60.8735412 6.99855 60.8735412 10.448646 60.2550206 10.448646 60.2550206 5.86743324 60.8678666 5.86743324 62.935276 9.291048 62.935276 5.86743324 63.5537966 5.86743324 63.5537966 10.448646"></polyline>
                <path d="M18.8584307,16.5868718 C19.5985472,17.4704756 20.3501307,18.3432509 21.105364,19.2117869 C21.2383369,19.3649006 21.2478848,19.425745 21.056939,19.5288701 C17.0769631,21.6743305 13.1002236,23.8273899 9.12301004,25.9773135 C9.05756192,26.0130813 8.99536743,26.072668 8.96133611,26.0945611 C12.1141207,22.9183528 15.2685671,19.7446979 18.4146178,16.5607685 C18.6094537,16.362958 18.6965168,16.3934466 18.8584307,16.5868718 Z M7.65051956,5.0864274 C9.71856587,7.21398981 11.7918893,9.33741415 13.8652127,11.4608385 C15.2073613,12.8358621 16.5489235,14.211477 17.8969356,15.5811802 C18.027691,15.7141898 18.0394179,15.783946 17.90104,15.9228671 C14.6040101,19.2274167 11.309912,22.5355132 8.02519537,25.8518858 C7.82407831,26.0546516 7.683355,26.03337 7.49103314,25.8838081 C7.13863852,25.6106951 7.00377868,25.245362 7.00436503,24.8096817 L7.0002606,19.3030844 L7.0002606,19.3030844 L7.0002606,15.4097457 L7.0002606,15.4097457 L7.00553772,15.4097457 C7.00553772,12.3103264 7.00671042,9.21090724 7.00377868,6.11207919 C7.00377868,5.73137616 7.07707207,5.3843689 7.34444636,5.09706817 C7.4482298,4.9853401 7.52269589,4.95519126 7.65051956,5.0864274 Z M22.6538905,12.9537592 C23.697699,13.6642393 24.7473575,14.3663365 25.7941365,15.0717585 C26.1181703,15.2897602 26.3646235,15.5633648 26.3569688,15.9881756 C26.3272346,16.3284089 26.1641266,16.5602735 25.9270074,16.7280113 C25.7516642,16.8526421 25.5603261,16.9521037 25.370637,17.0510723 C24.2451852,17.6403354 23.1173989,18.2225243 21.9938935,18.8159445 C21.8425255,18.8960664 21.7552951,18.888019 21.6409742,18.7464697 C20.910528,17.8484959 20.1727039,16.957087 19.4303209,16.0700737 C19.3223788,15.9410242 19.3226838,15.8732611 19.4467916,15.7557935 C20.4136532,14.8372826 21.375931,13.9133176 22.3346739,12.984533 C22.4475663,12.8745879 22.5248529,12.8658935 22.6538905,12.9537592 Z M8.17876169,4.75874939 C8.44183802,4.76628233 8.62456592,4.84226026 8.80039938,4.93988679 C13.1236627,7.34939107 17.4462933,9.75943453 21.7727983,12.1640006 C21.9715184,12.2742129 21.9652104,12.331803 21.8039571,12.4670496 C20.7883932,13.3183849 19.780545,14.1772861 18.7732904,15.0367693 C18.6644707,15.1295069 18.5987706,15.1827779 18.4617455,15.0460955 C15.0737845,11.6578521 11.6801295,8.27446132 8.28773987,4.88999218 C8.25927043,4.861496 8.23586238,4.82868643 8.17876169,4.75874939 Z" id="Combined-Shape" fill="#FFFFFF"></path>
                <g id="Clipped-Copy">
                    <mask id="mask-2" fill="white">
                        <use xlink:href="#path-1"></use>
                    </mask>
                    <g id="Path"></g>
                    <path d="M3.9709375,0.782441285 C2.2128125,0.782441285 0.782441285,2.2128125 0.782441285,3.9709375 L0.782441285,27.0917969 C0.782441285,28.8499219 2.2128125,30.2802931 3.9709375,30.2802931 L101.571504,30.2802931 C103.329629,30.2802931 104.76,28.8499219 104.76,27.0917969 L104.76,3.9709375 C104.76,2.2128125 103.329629,0.782441285 101.571504,0.782441285 L3.9709375,0.782441285 Z M101.571504,31.0646288 L3.9709375,31.0646288 C1.78085937,31.0646288 0,29.281875 0,27.0917969 L0,3.9709375 C0,1.78085937 1.78085937,-0.00189453125 3.9709375,-0.00189453125 L101.571504,-0.00189453125 C103.761582,-0.00189453125 105.542441,1.78085937 105.542441,3.9709375 L105.542441,27.0917969 C105.542441,29.281875 103.761582,31.0646288 101.571504,31.0646288" id="Shape" fill="#FFFFFF" fill-rule="nonzero" mask="url(#mask-2)"></path>
                </g>
            </g>
        </g>
    </g>
</svg>
