<?xml version="1.0" encoding="utf-8"?>
<!-- Generator: Adobe Illustrator 27.8.0, SVG Export Plug-In . SVG Version: 6.00 Build 0)  -->
<svg version="1.1" id="Laag_1" xmlns="http://www.w3.org/2000/svg" xmlns:xlink="http://www.w3.org/1999/xlink" x="0px" y="0px"
	 viewBox="0 0 1366 531" style="enable-background:new 0 0 1366 531;" xml:space="preserve">
<style type="text/css">
	.st0{fill:#A40344;}
	.st1{fill:#008294;}
	.st2{fill:#1D1D1B;}
</style>
<g>
	<g>
		<path class="st0" d="M1328.3,113.3l-53.6,13l27.3,27.3l-88.9,9.4l41.4,41.4c5.5,5.5,14.3,5.5,19.8,0l62.6-62.6
			c5.5-5.5,5.5-14.3,0-19.8L1328.3,113.3z"/>
		<path class="st0" d="M1215.2,111.5l82.3-29L1270,55c-5.5-5.5-14.3-5.5-19.8,0l-62.6,62.6c-5.5,5.5-5.5,14.3,0,19.8l18.6,18.6
			l40.2-15.5L1215.2,111.5z"/>
		<g>
			<path class="st1" d="M51.6,318.3c-4.1-1.8-7.9-3.7-11-6.1S36,307,36,303.8c0-2.4,0.8-4.6,2.5-6.4c1.7-1.9,3.7-2.8,6.1-2.8
				c2,0,4,0.5,6,1.6c2,1,4.3,2.2,6.7,3.4c0,0,12.1,5.5,20.2,8.1c4.1,1.3,9.5,2.5,14.4,2.5c4.7,0,9-0.9,13.1-2.6s7.6-4.2,10.6-7.2
				c3-3.1,5.4-6.7,7.1-10.7c1.7-4.1,2.6-8.4,2.6-13.1c0-6.3-1.9-11.3-5.8-15c-3.8-3.7-8.6-6.8-14.3-9.3c-5.7-2.5-11.9-4.7-18.6-6.8
				c-6.7-2-12.9-4.6-18.6-7.8c-5.7-3.2-10.5-7.3-14.4-12.3c-3.8-5-5.8-11.9-5.8-20.5c0-6.6,1.4-12.6,4.2-18
				c2.8-5.3,6.5-9.9,11.1-13.7c4.6-3.8,9.8-6.7,15.7-8.7c5.9-2,11.9-3.1,18.1-3.1c2.4,0,5.8,0.4,10.2,1.1c4.4,0.8,8.7,1.9,12.9,3.4
				c4.2,1.5,7.9,3.5,11,5.9c3.1,2.4,4.6,5.2,4.6,8.4c0,2.4-0.8,4.6-2.5,6.4c-1.7,1.9-3.7,2.8-6.1,2.8c-2,0-4-0.5-6-1.6
				s-4.3-2.2-6.7-3.4c-2.4-1.2-5.1-2.3-8-3.4c-2.9-1-6.2-1.6-9.8-1.6c-3.2,0-6.4,0.5-9.6,1.6s-6.2,2.6-8.9,4.5
				c-2.7,2-4.9,4.4-6.6,7.2c-1.7,2.9-2.5,6-2.5,9.5c0,5,1.3,9.1,4,12.3c2.6,3.2,5.9,6,9.7,8.1c3.8,2.2,8,4,12.5,5.5
				s8.6,2.9,12.2,4.3c4.8,1.8,9.6,4,14.2,6.7c4.7,2.6,8.8,5.7,12.4,9.3c3.6,3.5,6.6,7.6,8.8,12.2c2.3,4.6,3.4,9.8,3.4,15.5
				c0,7.1-1.4,13.7-4.3,20c-2.9,6.3-6.7,11.8-11.5,16.5s-10.4,8.5-16.7,11.3c-6.3,2.8-13,4.2-19.9,4.2c-3.3,0-7.2-0.2-12.2-1.1
				c-4.9-0.8-9.8-1.8-14.9-3.4C61.4,322.3,56.1,320.3,51.6,318.3z"/>
			<path class="st1" d="M280.7,243c2.4-7.4,5.9-14,10.4-19.8s10.1-10.4,16.7-13.9s14.2-5.3,22.6-5.3s16,1.8,22.6,5.3
				s12.2,8.2,16.7,13.9c4.5,5.8,8,12.4,10.4,19.8s3.6,15,3.6,22.8c0,7.6-1.2,15.2-3.5,22.7s-5.8,14.2-10.3,20.1
				s-10.1,10.7-16.7,14.3c-6.6,3.6-14.2,5.4-22.6,5.4c-8.6,0-16.2-1.8-22.8-5.4c-6.6-3.6-12.2-8.3-16.8-14.3
				c-4.6-5.9-8.1-12.6-10.4-20.1s-3.5-15.1-3.5-22.9C277.1,258,278.3,250.4,280.7,243z M299.2,281.2c1.2,5.3,3.1,10.2,5.7,14.7
				s5.9,8.2,10.1,11c4.1,2.8,9.2,4.3,15,4.3c6.2,0,11.4-1.4,15.7-4.2c4.3-2.8,7.8-6.4,10.4-10.8s4.6-9.3,5.8-14.7
				c1.2-5.4,1.8-10.7,1.8-16c0-5.1-0.6-10.3-1.8-15.6c-1.2-5.3-3.2-10.1-5.9-14.4c-2.7-4.3-6.2-7.8-10.4-10.6
				c-4.2-2.8-9.3-4.2-15.4-4.2c-5.9,0-10.9,1.4-15,4.3c-4.2,2.8-7.5,6.5-10.2,10.9c-2.6,4.4-4.6,9.3-5.8,14.5
				c-1.2,5.2-1.8,10.3-1.8,15.3C297.4,270.8,298,275.9,299.2,281.2z"/>
			<path class="st1" d="M418.8,266.7c0,4.8,0.7,8.9,2,14.3c1.4,5.4,3.4,10.2,6.2,14.6c2.8,4.4,6.2,8,10.4,10.9
				c4.1,2.9,9.1,4.3,14.8,4.3c2.3,0,4.5-0.4,6.8-1.1s4.4-1.5,6.6-2.4c2.1-0.8,4.1-1.6,5.9-2.4s3.4-1.1,4.7-1.1
				c2.4,0,4.5,0.9,6.2,2.6s2.6,3.7,2.6,6c0,3.3-1.2,6-3.7,8s-5.5,3.7-8.9,4.9c-3.5,1.2-7.1,2-10.7,2.5c-3.7,0.5-6.7,0.7-9.1,0.7
				c-8.8,0-16.5-1.7-23.3-5.1s-12.5-7.9-17.1-13.6c-4.6-5.6-8.1-12.2-10.4-19.7s-3.5-15.2-3.5-23.4v-0.8c0-8.1,1.2-15.9,3.5-23.4
				s5.8-14,10.4-19.7c4.6-5.6,10.3-10.2,17.1-13.6c6.8-3.4,14.5-5.1,23.3-5.1c2.4,0,5.5,0.2,9.1,0.7c3.7,0.4,7.3,1.3,10.7,2.5
				c3.5,1.2,6.4,2.8,8.9,4.9c2.5,2,3.7,4.7,3.7,8c0,2.3-0.9,4.3-2.6,6s-3.8,2.6-6.2,2.6c-1.3,0-2.9-0.4-4.7-1.1
				c-1.8-0.8-3.8-1.6-5.9-2.4s-4.3-1.6-6.6-2.4c-2.3-0.8-4.5-1.1-6.8-1.1c-5.7,0-10.7,1.4-14.8,4.3c-4.2,2.9-7.6,6.5-10.4,10.9
				s-4.9,9.2-6.2,14.6C419.5,256.7,418.8,261.8,418.8,266.7z"/>
			<path class="st1" d="M523.2,318.3c0,2.7-0.7,5-2.5,7s-4.1,2.9-6.8,2.9s-5-1-6.9-2.9c-1.9-2-2.8-4.2-2.8-6.8V160.3
				c0-2.6,0.9-4.8,2.8-6.8s4.2-2.9,6.9-2.9c2.7,0,5,1,6.8,2.9c1.8,2,2.7,4.3,2.7,7L523.2,318.3z"/>
			<path class="st1" d="M183.4,318.3c0,2.7-0.7,5.1-2.5,7c-1.8,2-4.3,2.9-7,2.9s-5-1-6.9-2.9c-1.9-2-2.8-4.2-2.8-6.8v-158
				c0-2.6,0.9-4.8,2.8-6.8c1.9-2,4.2-2.9,6.9-2.9s5,1,6.8,2.9c1.8,2,2.7,4.3,2.7,7V318.3z"/>
			<path class="st1" d="M197.4,208.1c5.8-2.6,11.8-4.1,18.1-4.1c6.8,0,12.8,1.2,18.2,3.5c5.3,2.3,9.9,5.6,13.7,9.7s6.7,9,8.7,14.6
				c2,5.6,3,11.6,3,18.1v68.6c0,2.7-0.9,5-2.8,6.9s-4.2,2.8-6.9,2.8c-2.6,0-4.7-0.9-6.6-2.8c-1.8-1.9-2.7-4.1-2.7-6.7v-68.8
				c0-3.9-0.8-7.7-2.3-11.2s-3.5-6.6-6.1-9.3c-2.6-2.6-5.6-4.8-9-6.3c-3.5-1.6-7.2-2.4-11.1-2.4c-3.9,0-7.6,0.8-11.1,2.3
				c0,0-3.7,1.1-6.6-0.6c-2.2-1.4-3.4-3.1-2.9-6.8C191.5,211.9,195.5,208.9,197.4,208.1z"/>
			<path class="st1" d="M553,261.7c-2.4-2.4-1.8-4.5,0.2-6.2l41.5-34.8c1.2-0.9,2.2-2,3.1-3.4c0.8-1.3,1.2-2.9,1.2-4.5
				c0-2.1-0.9-4.1-2.6-6c-1.7-1.9-3.7-2.8-6-2.8c-1.5,0-2.9,0.4-4.2,1.1c-1.3,0.8-2.5,1.6-3.7,2.5l-47.3,39.1l0,0
				c-6.4,5.8-6.4,16.2,0,23.1l0,0l54,54.8c1.2,0.9,2.4,1.7,3.7,2.5c1.3,0.7,2.7,1.1,4.2,1.1c2.3,0,4.3-0.9,6-2.8s2.6-3.9,2.6-6
				c0-1.7-0.4-3.2-1.2-4.5c-0.8-1.4-1.8-2.5-3.1-3.4L553,261.7z"/>
		</g>
		<g>
			<path class="st2" d="M718.8,311.3c7.8,0,14.4-5.3,16.3-12.6L768,187l19.6,132.3c0.5,2.7,1.5,4.9,3.3,6.6c1.7,1.6,4,2.5,6.9,2.5
				c2.7,0,5-0.8,6.8-2.5s2.7-3.8,2.7-6.6c0-1.5-0.1-2.6-0.2-3.4l-23.7-141.5c-0.8-3.8-2.5-6.7-5.3-8.9c-2.8-2.2-6.1-3.3-9.8-3.3
				c-3.8,0-6.8,1.1-9.3,3.2c-2.4,2.1-4.1,4.9-5.2,8.3l-35,120.8l-35-120.8c-1-3.5-2.8-6.2-5.2-8.3c-2.4-2.1-5.5-3.2-9.3-3.2
				s-7,1.1-9.8,3.3c-2.8,2.2-4.5,5.2-5.3,8.9l-23.7,141.5c-0.1,0.8-0.2,1.9-0.2,3.4c0,2.7,0.9,4.9,2.7,6.6c1.8,1.6,4.1,2.5,6.8,2.5
				c2.9,0,5.1-0.8,6.9-2.5c1.7-1.7,2.8-3.8,3.3-6.6L669.6,187l33,111.8C704.5,306,711.1,311.3,718.8,311.3L718.8,311.3z"/>
			<path class="st2" d="M1004.2,306.4c4.2-2.4,7.7-5.5,10.4-9.4c2.7-3.8,4.7-8.2,6-13.2s1.9-10.1,1.9-15.3c0-5.3-0.4-10.7-1.4-16.3
				c-0.9-5.6-2.5-10.6-4.9-15.1c-2.3-4.5-5.6-8.2-9.8-11.2c-4.2-2.9-9.6-4.4-16.3-4.4c-5.9,0-10.9,1.3-15.2,3.9s-7.8,6.1-10.6,10.3
				c-2.8,4.2-4.8,8.9-6.1,14.1s-1.9,10.3-1.9,15.5c0,5,0.6,10.1,1.7,15.5c1.1,5.4,3,10.2,5.6,14.4c2.6,4.3,6,7.8,10.2,10.6
				c4.1,2.8,9.2,4.2,15.2,4.2C994.9,310,1000,308.8,1004.2,306.4z M1041.6,318.8c0,2.6-0.9,4.8-2.8,6.7c-1.9,1.9-4.1,2.8-6.7,2.8
				c-2.9,0-5-0.6-6.3-1.9c-1.4-1.3-2.3-2.9-2.8-4.7c-0.5-1.9-0.8-3.9-0.8-6.2c0-2.3,0-4.1,0-6.1c-3.9,6.2-9,10.9-15.1,14.1
				c-6.2,3.2-12.9,4.8-20.1,4.8c-8.1,0-15.4-1.8-21.7-5.5s-11.6-8.5-15.9-14.3c-4.3-5.9-7.6-12.5-9.8-19.9
				c-2.3-7.4-3.4-14.7-3.4-21.9c0-7.8,1.2-15.5,3.5-23s5.7-14.2,10.2-20.1c4.4-5.9,10-10.6,16.6-14.1s14.2-5.3,22.8-5.3
				c6.9,0,13.3,1.5,19.2,4.6s10.5,7.6,14,13.7v-59c0-5.3,4.3-9.6,9.6-9.6s9.6,4.3,9.6,9.6L1041.6,318.8L1041.6,318.8z"/>
			<path class="st2" d="M1077.9,318.8c0,5.2-4.2,9.5-9.5,9.5c-5.2,0-9.5-4.2-9.5-9.5V213.5c0-5.2,4.2-9.5,9.5-9.5
				c5.2,0,9.5,4.2,9.5,9.5V318.8z"/>
			<path class="st2" d="M1080.4,177c0,5.2-4.2,9.5-9.5,9.5c-5.2,0-9.5-4.2-9.5-9.5c0-5.2,4.2-9.5,9.5-9.5
				C1076.2,167.5,1080.4,171.7,1080.4,177z"/>
			<path class="st2" d="M1117.1,281.7c1.1,5.5,3,10.5,5.5,14.9c2.6,4.4,6,8.1,10.3,10.9c4.3,2.9,9.5,4.3,15.7,4.3
				c6.8,0,12.3-1.4,16.7-4.3c4.4-2.8,7.8-6.5,10.3-11s4.2-9.6,5.1-15.2s1.3-11.3,1.3-17c0-5.1-0.5-10.3-1.5-15.5
				c-1-5.3-2.7-9.9-5.2-14.1c-2.5-4.1-5.8-7.5-9.9-10.2c-4.1-2.6-9.4-3.9-15.7-3.9c-6.2,0-11.4,1.3-15.8,4s-7.9,6.3-10.6,10.6
				c-2.7,4.4-4.7,9.2-6,14.6c-1.3,5.3-1.9,10.6-1.9,15.9C1115.4,270.9,1116,276.2,1117.1,281.7z M1181.5,213.5
				c0-5.2,4.3-9.5,9.5-9.5s9.5,4.2,9.5,9.5v105.2c0,5.3-4.3,9.6-9.6,9.6s-9.6-4.3-9.6-9.6v-8.9c-3.6,6.2-8.4,10.8-14.4,13.9
				c-5.9,3.1-12.4,4.6-19.5,4.6c-8.6,0-16.1-1.8-22.7-5.4c-6.5-3.6-12-8.3-16.4-14.2c-4.4-5.9-7.7-12.5-9.9-20
				c-2.3-7.4-3.4-15.1-3.4-22.9c0-7.7,1.2-15.2,3.5-22.5c2.3-7.4,5.7-13.9,10.2-19.7c4.4-5.8,9.9-10.5,16.4-14.1s13.9-5.4,22.4-5.4
				c6.6,0,12.9,1.4,18.8,4.1s11,6.7,15.2,11.9V213.5z"/>
			<path class="st2" d="M874.1,310.9c4.2,0,8.4-0.5,12.6-1.5c4.2-1,8.3-2.1,12.2-3.3c4.2-1.2,8.5,1.2,9.7,5.4
				c1.2,4.2-1.2,8.5-5.4,9.7c-5.1,2.1-10,3.8-14.6,5.1c-4.6,1.3-9.7,1.9-15.2,1.9c-9,0-17-1.7-23.9-5.1s-12.8-7.9-17.6-13.7
				c-4.8-5.7-8.5-12.3-10.9-19.9c-2.5-7.6-3.7-15.6-3.7-24c0-7.8,1.3-15.4,3.8-22.9c2.6-7.4,6.2-14,11-19.7
				c4.7-5.7,10.4-10.3,17.2-13.8c6.7-3.5,14.3-5.2,22.7-5.2c8,0,15.2,1.7,21.6,5.1c6.4,3.4,11.8,7.8,16.3,13.3
				c4.4,5.5,7.9,11.8,10.3,18.8c2.4,7.1,3.6,14.3,3.6,21.7c0,4.4-1,7.2-2.9,8.6c-2,1.4-5,2-9,2h-50c-4.1,0-7.4-3.3-7.4-7.4
				s3.3-7.5,7.4-7.5h41.9c-0.2-4.5-1-9-2.5-13.6s-3.6-8.7-6.3-12.4c-2.7-3.7-6-6.7-9.9-9s-8.4-3.5-13.3-3.5c-6,0-11.2,1.4-15.6,4.1
				c-4.4,2.7-8,6.2-10.9,10.5s-5,9.2-6.3,14.5s-2,10.6-2,15.9c0,5.1,0.6,10.4,1.7,15.9c1.2,5.5,3.1,10.4,5.8,14.8s6.2,8,10.4,10.9
				s9.5,4.3,15.6,4.3L874.1,310.9L874.1,310.9z"/>
		</g>
	</g>
	<g>
		<path class="st2" d="M835.9,360.3c0-0.6,0.1-0.9,0.4-1c0.2-0.1,0.5-0.2,0.8-0.2h4.1l6.7,21.2c0.2,0.7,0.4,1.5,0.7,2.3
			s0.5,1.7,0.7,2.5s0.4,1.5,0.6,2c0.2,0.6,0.3,0.9,0.3,1.1c0,0,0.1-0.4,0.2-1c0.1-0.6,0.3-1.3,0.5-2c0.2-0.8,0.4-1.6,0.6-2.4
			c0.2-0.8,0.4-1.6,0.7-2.2l6.2-20.3c0.1-0.4,0.2-0.7,0.4-0.9c0.1-0.2,0.4-0.3,0.8-0.3h4.6v48.1c0,0.3,0,0.5-0.1,0.7
			s-0.3,0.3-0.6,0.4c-0.4,0.1-0.9,0.1-1.7,0.1s-1.9,0-3.4,0l0.2-17.1c0-1.7,0.1-3.6,0.2-5.8c0.1-2.2,0.2-4.3,0.4-6.3
			c0.1-2,0.3-3.9,0.4-5.4c0.1-1.6,0.2-2.7,0.2-3.2c-0.4,1.3-0.8,2.8-1.3,4.5s-0.9,3.3-1.3,4.8c-0.4,1.5-0.8,2.9-1.2,4.1
			c-0.4,1.2-0.6,2-0.7,2.4l-3.7,10.7c-0.1,0.2-0.2,0.4-0.4,0.5c-0.1,0.1-0.3,0.1-0.4,0.1h-2.5l-3.7-11.3c-0.1-0.4-0.4-1.2-0.7-2.4
			s-0.7-2.6-1.2-4.1c-0.4-1.5-0.9-3.2-1.4-4.9s-0.9-3.2-1.3-4.6v0.1c0.2,2.5,0.4,5,0.6,7.5c0.2,2.1,0.3,4.4,0.5,6.7
			c0.1,2.4,0.2,4.5,0.2,6.4l0.1,16.3c0,0.3,0,0.5-0.1,0.7s-0.3,0.3-0.7,0.4c-0.4,0.1-1,0.1-1.7,0.1c-0.8,0-1.8,0-3.1,0v-48.3H835.9z
			"/>
		<path class="st2" d="M869.4,376.3c0-0.4,0.1-0.7,0.2-1.1c0.1-0.4,0.3-0.6,0.6-0.9c0.6-0.4,1.9-0.8,3.8-1.2
			c1.9-0.4,4.2-0.7,6.9-0.7c3,0,5.3,0.6,6.6,1.9c1.4,1.3,2.1,3.5,2.1,6.7v3.7c0,2,0,4,0,6.1c0,2,0,4-0.1,5.9c0,1.9-0.1,3.7-0.1,5.4
			s-0.1,3.2-0.2,4.5c-0.9,0.6-2.2,1.1-3.9,1.6c-1.6,0.5-3.6,0.8-5.9,0.8c-1.3,0-2.5-0.1-3.7-0.3s-2.3-0.7-3.2-1.4
			c-0.9-0.8-1.7-1.8-2.3-3.3c-0.6-1.4-0.8-3.3-0.8-5.7s0.3-4.4,0.8-5.9s1.2-2.7,2.1-3.5c0.9-0.8,1.9-1.4,3-1.7s2.3-0.4,3.4-0.4
			c0.8,0,1.7,0.1,2.6,0.2c1,0.1,1.8,0.4,2.5,0.7v-5.6c0-1.6-0.4-2.7-1.1-3.3c-0.8-0.6-1.8-0.8-3.2-0.8c-1.8,0-3.5,0.2-5.2,0.5
			s-3,0.7-4.1,1.1c-0.3-0.6-0.5-1.1-0.6-1.7C869.5,377.2,869.4,376.7,869.4,376.3z M883.8,391.7c-0.5-0.2-1-0.4-1.6-0.5
			s-1.2-0.1-1.7-0.1c-0.7,0-1.4,0.1-2,0.2c-0.6,0.2-1.2,0.5-1.7,1s-0.8,1.2-1.1,2.1c-0.3,0.9-0.4,2.1-0.4,3.7c0,1.3,0.1,2.3,0.3,3.1
			s0.5,1.4,0.9,1.9c0.4,0.4,0.9,0.7,1.4,0.9c0.6,0.1,1.2,0.2,1.9,0.2c0.8,0,1.5-0.1,2.2-0.4c0.7-0.2,1.2-0.5,1.5-0.8
			c0-0.6,0.1-1.3,0.1-2.2s0-1.9,0.1-2.9c0-1,0-2.1,0-3.2C883.8,393.7,883.8,392.7,883.8,391.7z"/>
		<path class="st2" d="M895.4,374.8c0.7-0.3,1.5-0.6,2.4-0.9c0.9-0.3,1.8-0.6,2.8-0.8s2-0.4,3-0.5s2-0.2,2.9-0.2
			c3.7,0,6.3,0.7,7.7,2.1c1.5,1.4,2.2,3.9,2.2,7.3v25.3c0,0.3,0,0.5-0.1,0.7s-0.3,0.3-0.7,0.4c-0.4,0.1-1,0.1-1.8,0.1s-1.9,0-3.4,0
			v-24.8c0-2.3-0.3-3.8-0.8-4.7s-1.7-1.4-3.4-1.4c-0.7,0-1.6,0.1-2.6,0.3s-1.8,0.5-2.6,1v28.5c0,0.3,0,0.5-0.1,0.7s-0.3,0.3-0.7,0.4
			c-0.4,0.1-0.9,0.1-1.7,0.1s-1.8,0-3.2,0L895.4,374.8L895.4,374.8z"/>
		<path class="st2" d="M921.2,376.3c0-0.4,0.1-0.7,0.2-1.1c0.1-0.4,0.3-0.6,0.6-0.9c0.6-0.4,1.9-0.8,3.8-1.2
			c1.9-0.4,4.2-0.7,6.9-0.7c3,0,5.3,0.6,6.6,1.9c1.4,1.3,2.1,3.5,2.1,6.7v3.7c0,2,0,4,0,6.1c0,2,0,4-0.1,5.9c0,1.9-0.1,3.7-0.1,5.4
			s-0.1,3.2-0.2,4.5c-0.9,0.6-2.2,1.1-3.9,1.6c-1.6,0.5-3.6,0.8-5.9,0.8c-1.3,0-2.5-0.1-3.7-0.3s-2.3-0.7-3.2-1.4
			c-0.9-0.8-1.7-1.8-2.3-3.3c-0.6-1.4-0.8-3.3-0.8-5.7s0.3-4.4,0.8-5.9s1.2-2.7,2.1-3.5c0.9-0.8,1.9-1.4,3-1.7s2.3-0.4,3.4-0.4
			c0.8,0,1.7,0.1,2.6,0.2c1,0.1,1.8,0.4,2.5,0.7v-5.6c0-1.6-0.4-2.7-1.1-3.3c-0.7-0.6-1.8-0.8-3.2-0.8c-1.8,0-3.5,0.2-5.2,0.5
			s-3,0.7-4.1,1.1c-0.3-0.6-0.5-1.1-0.6-1.7C921.2,377.2,921.2,376.7,921.2,376.3z M935.6,391.7c-0.5-0.2-1-0.4-1.6-0.5
			s-1.2-0.1-1.7-0.1c-0.7,0-1.4,0.1-2,0.2c-0.6,0.2-1.2,0.5-1.7,1s-0.8,1.2-1.1,2.1c-0.3,0.9-0.4,2.1-0.4,3.7c0,1.3,0.1,2.3,0.3,3.1
			s0.5,1.4,0.9,1.9c0.4,0.4,0.9,0.7,1.4,0.9c0.6,0.1,1.2,0.2,1.9,0.2c0.8,0,1.5-0.1,2.2-0.4c0.7-0.2,1.2-0.5,1.5-0.8
			c0-0.6,0.1-1.3,0.1-2.2s0-1.9,0.1-2.9c0-1,0-2.1,0-3.2C935.6,393.7,935.6,392.7,935.6,391.7z"/>
		<path class="st2" d="M958.4,372.4c0.5,0,1,0,1.7,0.1c0.6,0.1,1.3,0.2,1.9,0.4h8.4c0.1,0.2,0.3,0.6,0.4,1.1c0.1,0.5,0.2,1,0.2,1.7
			c0,1.5-0.7,2.2-2,2.2c-0.7,0-1.5-0.1-2.5-0.4c0.8,0.8,1.4,1.8,1.9,3.1s0.7,2.8,0.7,4.5c0,3.8-0.9,6.7-2.6,9
			c-1.8,2.2-4.7,3.3-8.8,3.3c-1.3,0-2.4-0.1-3.2-0.3c-0.5,0.5-0.9,1-1.3,1.5c-0.4,0.6-0.6,1.1-0.6,1.5c0,0.3,0.2,0.6,0.6,0.8
			c0.4,0.2,1,0.4,1.8,0.5s1.6,0.3,2.6,0.4c1,0.1,2.1,0.3,3.3,0.4c1.4,0.2,2.7,0.5,3.8,0.9s2.1,0.8,2.9,1.5c0.8,0.6,1.5,1.4,1.9,2.4
			c0.4,0.9,0.7,2.1,0.7,3.5c0,1.5-0.3,2.9-0.8,4.3c-0.5,1.4-1.3,2.6-2.4,3.7c-1.1,1.1-2.5,1.9-4.2,2.5s-3.7,0.9-6.1,0.9
			c-2.3,0-4.3-0.2-5.7-0.7c-1.5-0.4-2.6-1-3.4-1.8c-0.8-0.8-1.4-1.6-1.7-2.5s-0.4-1.8-0.4-2.7c0-1.7,0.5-3.3,1.5-4.7
			s2.3-2.7,3.8-3.7c-1.4-0.4-2.4-0.9-3.2-1.5s-1.1-1.4-1.1-2.4c0-0.9,0.5-2,1.3-3.1s1.9-2.2,3.2-3.3c-1.6-1.1-2.8-2.5-3.4-4.4
			c-0.6-1.9-1-3.9-1-6.2s0.3-4.3,0.8-6c0.6-1.6,1.4-3,2.4-4s2.3-1.7,3.7-2.2C955.1,372.7,956.7,372.4,958.4,372.4z M956.5,407
			c-0.2,0-0.4,0-0.6,0c-0.2,0-0.4-0.1-0.6-0.1c-1,0.8-1.9,1.8-2.7,2.9c-0.8,1.1-1.1,2.3-1.1,3.4c0,0.6,0.1,1.1,0.2,1.5
			c0.2,0.4,0.5,0.8,0.9,1.2c0.4,0.3,1,0.6,1.8,0.8s1.8,0.3,3,0.3c1.3,0,2.3-0.2,3.2-0.5s1.6-0.8,2.2-1.3c0.6-0.5,1-1.1,1.3-1.8
			c0.3-0.6,0.4-1.3,0.4-1.9c0-0.8-0.1-1.5-0.4-2c-0.3-0.5-0.7-0.9-1.3-1.3c-0.6-0.4-1.4-0.6-2.5-0.8
			C959.3,407.2,958.1,407.1,956.5,407z M958.2,376.7c-1.5,0-2.8,0.6-3.8,1.9c-1.1,1.3-1.6,3.5-1.6,6.6c0,1.3,0.1,2.4,0.2,3.4
			c0.1,1,0.4,1.8,0.8,2.5c0.4,0.7,0.9,1.2,1.6,1.5c0.7,0.4,1.6,0.5,2.6,0.5c1.9,0,3.2-0.8,4.1-2.3c0.8-1.5,1.3-3.9,1.3-7
			c0-2.6-0.4-4.4-1.3-5.5C961.2,377.2,959.9,376.7,958.2,376.7z"/>
		<path class="st2" d="M985.9,372.4c6,0,8.9,3.8,8.9,11.3c0,1.5-0.1,3.1-0.2,4.8c-0.1,1.6-0.3,3.1-0.6,4.4c-1.2,0.2-2.5,0.4-3.9,0.6
			c-1.4,0.1-2.7,0.3-4,0.3c-1.3,0.1-2.6,0.2-3.8,0.2s-2.2,0-3,0c0,1.9,0.2,3.4,0.5,4.6c0.3,1.2,0.7,2.2,1.2,2.9s1.2,1.2,2,1.5
			s1.7,0.4,2.8,0.4c1.4,0,2.8-0.2,4.2-0.6c1.4-0.4,2.6-0.9,3.9-1.6c0.2,0.5,0.3,1.1,0.4,1.9c0.1,0.8,0.1,1.4,0.1,2s-0.3,1.1-0.8,1.5
			c-0.5,0.5-1.2,0.9-2.1,1.2c-0.9,0.4-1.9,0.6-3.1,0.8c-1.2,0.2-2.4,0.3-3.7,0.3c-1.6,0-3.2-0.2-4.5-0.6c-1.4-0.4-2.6-1.2-3.6-2.4
			s-1.8-2.9-2.3-5c-0.6-2.2-0.8-4.9-0.8-8.4c0-4.4,0.4-7.9,1.1-10.6c0.7-2.7,1.7-4.7,2.8-6.1c1.1-1.4,2.5-2.3,4-2.8
			C982.8,372.7,984.4,372.4,985.9,372.4z M985.3,377.4c-0.7,0-1.4,0.2-2,0.5c-0.7,0.4-1.3,1-1.8,1.9s-1,2.1-1.3,3.7
			c-0.3,1.5-0.6,3.5-0.7,5.9c0.7,0,1.4,0,2.3,0c0.8,0,1.7,0,2.6-0.1c0.9-0.1,1.7-0.2,2.5-0.2c0.8-0.1,1.5-0.2,2.1-0.4
			c0.1-0.7,0.2-1.4,0.3-2.1c0-0.7,0.1-1.5,0.1-2.1c0-2.5-0.4-4.3-0.9-5.4C987.8,378,986.8,377.4,985.3,377.4z"/>
		<path class="st2" d="M1014.8,359.2c0-0.7,0.1-1.2,0.2-1.5c0.2-0.4,0.5-0.6,0.9-0.8s1-0.3,1.7-0.3s1.7,0,2.8,0v50.3
			c-1.2,0.6-2.6,1.1-4.3,1.5s-3.6,0.6-5.8,0.6c-1.5,0-3-0.2-4.4-0.5c-1.4-0.4-2.6-1.1-3.7-2.3c-1.1-1.2-1.9-2.9-2.5-5.1
			c-0.6-2.3-0.9-5.3-0.9-9.1c0-3.5,0.3-6.4,0.8-8.9c0.6-2.5,1.3-4.5,2.3-6.1s2.1-2.7,3.4-3.4c1.3-0.7,2.7-1.1,4.2-1.1
			c2.1,0,3.8,0.5,5,1.4v-14.7H1014.8z M1014.8,378.3c-0.5-0.4-0.9-0.6-1.4-0.7c-0.5-0.1-1.1-0.2-1.8-0.2c-0.8,0-1.6,0.2-2.3,0.6
			c-0.7,0.4-1.4,1.1-2,2.1s-1.1,2.4-1.4,4.3c-0.3,1.8-0.5,4.2-0.5,7c0,2.6,0.1,4.8,0.3,6.4c0.2,1.6,0.6,2.9,1.1,3.8
			c0.5,0.9,1,1.5,1.7,1.8c0.6,0.3,1.4,0.5,2.2,0.5s1.5-0.1,2.3-0.2c0.7-0.2,1.3-0.4,1.9-0.8L1014.8,378.3L1014.8,378.3z"/>
		<path class="st2" d="M1054.9,384.4h-11.2v22.8c0,0.3,0,0.5-0.1,0.7c0,0.2-0.2,0.3-0.6,0.4c-0.4,0.1-0.9,0.1-1.7,0.1
			c-0.8,0-1.9,0-3.3,0v-48.1c0-0.3,0-0.5,0.1-0.7c0-0.2,0.2-0.3,0.6-0.4c0.4-0.1,0.9-0.1,1.7-0.1c0.8,0,1.9,0,3.3,0v20h11.2v-18.9
			c0-0.3,0-0.5,0.1-0.7c0-0.2,0.2-0.3,0.6-0.4c0.4-0.1,0.9-0.1,1.7-0.1c0.8,0,1.9,0,3.3,0v48.1c0,0.3,0,0.5-0.1,0.7
			c0,0.2-0.2,0.3-0.6,0.4c-0.4,0.1-0.9,0.1-1.7,0.1c-0.8,0-1.9,0-3.3,0V384.4z"/>
		<path class="st2" d="M1065.3,390.7c0-6.4,1-11.1,3.1-14c2-2.9,4.9-4.3,8.6-4.3c1.8,0,3.4,0.3,4.8,0.8s2.5,1.5,3.4,2.9
			s1.6,3.2,2,5.6c0.4,2.3,0.7,5.3,0.7,8.8c0,6.6-1,11.3-3,14.2s-4.8,4.3-8.6,4.3c-1.8,0-3.4-0.2-4.8-0.6c-1.4-0.4-2.5-1.3-3.4-2.6
			s-1.6-3.1-2.1-5.6C1065.6,397.8,1065.3,394.7,1065.3,390.7z M1071.5,390.9c0,2.9,0.1,5.2,0.3,7c0.2,1.7,0.5,3.1,0.9,4
			s0.9,1.6,1.6,1.9c0.6,0.3,1.3,0.5,2.1,0.5c0.7,0,1.4-0.2,2.1-0.6c0.6-0.4,1.2-1.1,1.7-2.1s0.8-2.4,1.1-4.1c0.3-1.7,0.4-4,0.4-6.8
			s-0.1-5.1-0.3-6.8c-0.2-1.7-0.5-3-0.9-4c-0.4-0.9-0.9-1.6-1.5-1.9c-0.6-0.3-1.3-0.5-2.2-0.5c-0.8,0-1.5,0.2-2.1,0.6
			c-0.6,0.4-1.2,1.1-1.7,2c-0.5,1-0.8,2.4-1.1,4.1C1071.7,385.9,1071.5,388.1,1071.5,390.9z"/>
		<path class="st2" d="M1103.2,372.4c1.8,0,3.3,0.1,4.5,0.4c1.1,0.3,2.1,0.6,2.7,1c0.7,0.4,1.1,0.8,1.3,1.3c0.2,0.5,0.3,0.9,0.3,1.2
			c0,1-0.4,1.9-1.3,2.9c-2-1.2-4.3-1.8-6.9-1.8c-1.6,0-3,0.3-4,0.9c-1,0.6-1.5,1.4-1.5,2.5c0,0.7,0.2,1.3,0.5,1.9
			c0.3,0.6,1.1,1.4,2.3,2.4l6.5,5.3c1.5,1.5,2.6,2.9,3.2,4.2s1,2.8,1,4.6c0,3.1-1,5.6-3.1,7.2c-2.1,1.7-4.9,2.5-8.5,2.5
			c-2.5,0-4.6-0.3-6.2-0.9c-1.6-0.6-2.4-1.5-2.4-2.7c0-0.4,0.1-0.9,0.2-1.5s0.4-1.2,0.8-1.8c2,1.2,4.4,1.8,7,1.8
			c1.8,0,3.2-0.4,4.2-1.1c1-0.8,1.5-1.8,1.5-3.2c0-0.9-0.2-1.9-0.6-2.7c-0.4-0.9-1.1-1.8-2.2-2.7l-6.8-5.8c-1.6-1.3-2.7-2.6-3.2-3.8
			s-0.8-2.5-0.8-3.6c0-2.4,0.9-4.4,2.8-6C1096.4,373.2,1099.3,372.4,1103.2,372.4z"/>
		<path class="st2" d="M1119.9,378.1h-4.8c0-1.1,0-1.9,0-2.6c0-0.7,0.1-1.2,0.1-1.5c0.1-0.4,0.2-0.6,0.4-0.7
			c0.2-0.1,0.4-0.1,0.7-0.1h3.5v-10.7c0-0.5,0.1-0.8,0.2-1.1c0.2-0.3,0.5-0.5,0.9-0.6s1-0.2,1.8-0.2s1.7,0,2.9,0v12.7h7.2
			c0,1.1,0,2,0,2.6s-0.1,1.1-0.1,1.5c-0.1,0.3-0.2,0.6-0.3,0.7c-0.1,0.1-0.4,0.1-0.6,0.1h-6.1v20.5c0,0.8,0,1.5,0,2.1
			c0,0.7,0.1,1.3,0.3,1.8c0.2,0.5,0.4,0.9,0.7,1.2c0.3,0.3,0.8,0.5,1.5,0.5c0.8,0,1.5-0.1,2.1-0.2c0.6-0.2,1.3-0.4,2-0.8
			c0.1,0.4,0.2,0.8,0.3,1.3c0.1,0.5,0.1,1,0.1,1.5c0,0.7-0.2,1.2-0.6,1.6c-0.4,0.4-0.9,0.7-1.4,0.9c-0.6,0.2-1.2,0.4-1.9,0.5
			c-0.7,0.1-1.4,0.1-2.1,0.1c-1.5,0-2.7-0.2-3.6-0.7s-1.6-1.2-2-2.1c-0.5-0.9-0.8-2-0.9-3.3s-0.2-2.7-0.2-4.3L1119.9,378.1
			L1119.9,378.1z"/>
		<path class="st2" d="M1143.4,407.2c0,0.3,0,0.5-0.1,0.7s-0.3,0.3-0.7,0.4c-0.4,0.1-1,0.1-1.7,0.1c-0.8,0-1.9,0-3.3,0v-32.6
			c0-0.7,0.1-1.2,0.2-1.5c0.2-0.4,0.5-0.6,0.9-0.8s1-0.3,1.8-0.3s1.7,0,2.9,0L1143.4,407.2L1143.4,407.2z M1137.6,362
			c0-1.3,0.3-2.3,0.8-3.1s1.3-1.2,2.5-1.2c1.1,0,1.8,0.3,2.2,0.9c0.4,0.6,0.6,1.7,0.6,3.2s-0.3,2.6-0.8,3.4
			c-0.5,0.8-1.3,1.2-2.4,1.2c-0.9,0-1.7-0.3-2.1-1C1137.8,364.7,1137.6,363.6,1137.6,362z"/>
		<path class="st2" d="M1149.8,374.8c0.7-0.3,1.5-0.6,2.4-0.9c0.9-0.3,1.8-0.6,2.8-0.8s2-0.4,3-0.5s2-0.2,2.9-0.2
			c3.7,0,6.3,0.7,7.7,2.1c1.5,1.4,2.2,3.9,2.2,7.3v25.3c0,0.3,0,0.5-0.1,0.7s-0.3,0.3-0.7,0.4c-0.4,0.1-1,0.1-1.8,0.1s-1.9,0-3.4,0
			v-24.8c0-2.3-0.3-3.8-0.8-4.7s-1.7-1.4-3.4-1.4c-0.8,0-1.6,0.1-2.6,0.3s-1.8,0.5-2.6,1v28.5c0,0.3,0,0.5-0.1,0.7s-0.3,0.3-0.7,0.4
			c-0.4,0.1-0.9,0.1-1.7,0.1c-0.8,0-1.8,0-3.2,0L1149.8,374.8L1149.8,374.8z"/>
		<path class="st2" d="M1187.9,372.4c0.5,0,1,0,1.7,0.1c0.6,0.1,1.3,0.2,1.9,0.4h8.4c0.1,0.2,0.3,0.6,0.4,1.1s0.2,1,0.2,1.7
			c0,1.5-0.7,2.2-2,2.2c-0.7,0-1.5-0.1-2.5-0.4c0.8,0.8,1.4,1.8,1.9,3.1s0.7,2.8,0.7,4.5c0,3.8-0.9,6.7-2.6,9
			c-1.8,2.2-4.7,3.3-8.8,3.3c-1.3,0-2.4-0.1-3.2-0.3c-0.5,0.5-0.9,1-1.3,1.5c-0.4,0.6-0.6,1.1-0.6,1.5c0,0.3,0.2,0.6,0.6,0.8
			s1,0.4,1.8,0.5c0.7,0.1,1.6,0.3,2.6,0.4c1,0.1,2.1,0.3,3.3,0.4c1.4,0.2,2.7,0.5,3.8,0.9c1.1,0.4,2.1,0.8,2.9,1.5
			c0.8,0.6,1.5,1.4,1.9,2.4c0.4,0.9,0.7,2.1,0.7,3.5c0,1.5-0.3,2.9-0.8,4.3c-0.5,1.4-1.3,2.6-2.4,3.7c-1.1,1.1-2.5,1.9-4.2,2.5
			s-3.7,0.9-6.1,0.9c-2.3,0-4.3-0.2-5.7-0.7c-1.5-0.4-2.6-1-3.4-1.8s-1.4-1.6-1.7-2.5c-0.3-0.9-0.4-1.8-0.4-2.7
			c0-1.7,0.5-3.3,1.5-4.7s2.3-2.7,3.8-3.7c-1.4-0.4-2.4-0.9-3.2-1.5c-0.8-0.6-1.1-1.4-1.1-2.4c0-0.9,0.5-2,1.3-3.1s1.9-2.2,3.2-3.3
			c-1.6-1.1-2.8-2.5-3.4-4.4s-1-3.9-1-6.2s0.3-4.3,0.8-6c0.6-1.6,1.4-3,2.4-4s2.3-1.7,3.7-2.2
			C1184.6,372.7,1186.2,372.4,1187.9,372.4z M1186,407c-0.2,0-0.4,0-0.6,0s-0.4-0.1-0.6-0.1c-1,0.8-1.9,1.8-2.7,2.9
			c-0.7,1.1-1.1,2.3-1.1,3.4c0,0.6,0.1,1.1,0.2,1.5c0.2,0.4,0.5,0.8,0.9,1.2c0.4,0.3,1,0.6,1.8,0.8s1.8,0.3,3,0.3
			c1.3,0,2.3-0.2,3.2-0.5c0.9-0.3,1.6-0.8,2.2-1.3s1-1.1,1.3-1.8c0.3-0.6,0.4-1.3,0.4-1.9c0-0.8-0.1-1.5-0.4-2s-0.7-0.9-1.3-1.3
			c-0.6-0.4-1.4-0.6-2.5-0.8C1188.8,407.2,1187.5,407.1,1186,407z M1187.7,376.7c-1.5,0-2.8,0.6-3.8,1.9c-1.1,1.3-1.6,3.5-1.6,6.6
			c0,1.3,0.1,2.4,0.2,3.4s0.4,1.8,0.8,2.5s0.9,1.2,1.6,1.5c0.7,0.4,1.6,0.5,2.6,0.5c1.9,0,3.2-0.8,4.1-2.3c0.8-1.5,1.3-3.9,1.3-7
			c0-2.6-0.4-4.4-1.3-5.5C1190.7,377.2,1189.4,376.7,1187.7,376.7z"/>
	</g>
</g>
</svg>
